<svg width="48" height="24" viewBox="0 0 48 24" fill="none" xmlns="http://www.w3.org/2000/svg">
<path fill-rule="evenodd" clip-rule="evenodd" d="M47.4062 17.2769V23.6677H29.4652L27.3419 20.1462H20.76L18.6368 23.6677H0.801865V17.2769L9.29469 0.582397H38.5949L47.4062 17.2769ZM36.684 1.36489L45.0707 17.5377H46.7692L38.3825 1.36489H36.684ZM3.13727 17.5377L11.5239 1.36489H9.82537L1.4387 17.5377H3.13727ZM12.3733 1.49539H35.9409V22.6243H31.352C31.944 21.1058 32.2314 19.2532 32.2314 17.5378C32.2314 11.7157 28.4872 6.96583 23.8386 6.96583C19.19 6.96583 15.4459 11.7157 15.4459 17.5378C15.4459 19.1903 15.5539 21.0695 16.121 22.6243H12.3733V1.49539ZM17.1961 22.6243L17.2958 22.5529C16.668 21.2305 16.5196 19.3878 16.5196 17.5378C16.5196 12.4109 19.8099 8.285 23.8386 8.285C27.8674 8.285 31.1576 12.4109 31.1576 17.5378C31.1576 19.3108 30.8162 21.1899 30.1691 22.5529L30.2688 22.6243H29.7836L27.8727 19.2333H20.3354L18.106 22.6243H17.1961Z" fill="#863B3B"/>
<path d="M24.0509 11.0165C26.5134 11.0165 28.5096 13.423 28.5096 16.3915C28.5096 17.4905 28.2361 18.5124 27.7665 19.3637H20.3353C19.8658 18.5124 19.5922 17.4905 19.5922 16.3915C19.5922 13.423 21.5884 11.0165 24.0509 11.0165Z" fill="#863B3B"/>
</svg>
