<svg width="39" height="32" viewBox="0 0 39 32" fill="none" xmlns="http://www.w3.org/2000/svg">
<path d="M11.4782 0.490662C13.087 0.490662 14.3894 1.70924 14.3894 3.21454C14.3894 4.71984 13.087 5.93842 11.4782 5.93842C9.86942 5.93842 8.56706 4.71984 8.56706 3.21454C8.56706 1.70924 9.86942 0.490662 11.4782 0.490662ZM0.293213 24.5038C0.293213 28.3387 3.62573 31.4568 7.72435 31.4568C11.823 31.4568 15.1938 28.3387 15.1938 24.5038C15.1938 21.6007 13.2786 19.0919 10.5589 18.0525L11.7847 14.1459L11.823 14.11L15.6918 10.4902L19.1009 13.68H16.8026C15.9216 13.68 15.1938 14.3251 15.1555 15.1494C15.1555 15.2569 15.1555 15.4003 15.1938 15.5437L16.3429 20.8481C16.5345 21.6724 17.4155 22.2458 18.2965 22.0666C19.1775 21.8874 19.7904 21.0631 19.5988 20.2388L18.8328 16.7622H22.2036L18.7944 25.3998C18.488 26.1883 18.9094 27.0843 19.7904 27.371C20.6331 27.6577 21.5907 27.2635 21.8971 26.4392L24.8083 19.0202L25.5744 19.8087C24.387 21.0273 23.6592 22.6759 23.6592 24.4679C23.6592 28.3029 26.9917 31.421 31.0903 31.421C35.1889 31.421 38.598 28.3387 38.598 24.5038C38.598 20.6689 35.2655 17.5507 31.1669 17.5507C29.5581 17.5507 28.1025 18.0167 26.8768 18.841L25.5361 17.4432L26.2639 15.6153C26.3405 15.4003 26.3788 15.1853 26.3788 15.0061C26.4171 14.3609 26.1873 13.7158 25.651 13.214L18.6029 6.58354C17.8751 5.90257 16.8026 5.72337 15.8833 6.08178C15.5385 6.22514 15.2321 6.44018 15.0789 6.58354L9.48637 11.8879C9.17993 12.1747 9.02671 12.4972 9.02671 12.8556H5.27284C4.85149 12.8556 4.50674 13.1424 4.46844 13.5008C4.43013 13.6441 4.27692 14.8269 5.15793 15.7587C5.7325 16.4038 6.61351 16.7264 7.76266 16.7264C8.22231 16.7264 8.60536 16.368 8.60536 15.9379C8.60536 15.5078 8.22231 15.1494 7.76266 15.1494C7.11147 15.1494 6.65181 15.0061 6.38368 14.7193C6.26877 14.6118 6.23046 14.5043 6.15385 14.3609H9.94603L8.9501 17.5507C8.52875 17.479 8.1457 17.4432 7.72435 17.4432C3.62573 17.5149 0.293213 20.6689 0.293213 24.5038ZM26.7235 20.9914L30.5157 25.0056C30.8605 25.3281 31.3584 25.3281 31.6649 25.0772C32.0096 24.7905 32.0479 24.2887 31.7415 24.002L27.9493 19.9879C28.8686 19.4144 29.9412 19.0919 31.1286 19.0919C34.3079 19.0919 36.9126 21.529 36.9126 24.5038C36.9126 27.4785 34.3079 29.9157 31.1286 29.9157C27.9493 29.9157 25.3446 27.4785 25.3446 24.5038C25.3446 23.1777 25.8808 21.9591 26.7235 20.9914ZM1.94032 24.5038C1.94032 21.529 4.54505 19.0919 7.72435 19.0919C7.99248 19.0919 8.26062 19.1277 8.49045 19.1636L6.91995 24.3246C6.80503 24.7188 7.03486 25.1489 7.49452 25.2923C7.57113 25.3281 7.64774 25.3281 7.72435 25.3281C8.06909 25.3281 8.41384 25.1131 8.52875 24.7547L10.0992 19.5936C12.1294 20.4538 13.5084 22.3534 13.5084 24.5396C13.5084 27.5144 10.9037 29.9515 7.72435 29.9515C4.54505 29.9515 1.94032 27.4785 1.94032 24.5038Z" fill="#863B3B"/>
</svg>
