<svg width="36" height="33" viewBox="0 0 36 33" fill="none" xmlns="http://www.w3.org/2000/svg">
<path d="M23.898 0.558258H11.6222V10.9802H0.508545V22.492H11.6222V32.9136H23.898V22.492H35.0113V10.9802H23.898V0.558258ZM6.42542 17.0864H1.94124V16.3855H6.42542V17.0864ZM15.3938 17.0864H10.9096V16.3855H15.3938V17.0864ZM18.1336 31.746H17.3866V27.5409H18.1336V31.746ZM18.1336 23.3358H17.3866V19.1304H18.1336V23.3358ZM18.1336 14.9253H17.3866V10.7202H18.1336V14.9253ZM18.1336 6.51512H17.3866V2.31003H18.1336V6.51512ZM28.8463 16.3855H33.3305V17.0864H28.8463V16.3855ZM24.3621 16.3855V17.0864H19.8776V16.3855H24.3621Z" fill="#863B3B"/>
</svg>
