<svg width="389" height="127" viewBox="0 0 389 127" fill="none" xmlns="http://www.w3.org/2000/svg">
<path d="M288.762 115.979H302.467H313.583H351.28H359.775H377.329V113.821C377.329 110.469 374.608 107.747 371.256 107.747H365.151V106.386C365.151 102.469 361.965 99.2819 358.049 99.2819H353.005C349.09 99.2819 345.904 102.469 345.904 106.386V107.747H315.276C314.148 105.39 311.758 103.763 308.971 103.763H307.08C304.292 103.763 301.903 105.39 300.775 107.747H294.138V106.386C294.138 102.469 290.952 99.2819 287.037 99.2819H281.993C278.077 99.2819 274.892 102.469 274.892 106.386V107.747H196.877V107.249C196.877 104.095 194.322 101.539 191.17 101.539H169.202C169.202 99.2155 167.311 97.3566 165.021 97.3566H121.053C118.73 97.3566 116.872 99.2487 116.872 101.539V107.747H69.8843V105.589C69.8843 102.236 67.1633 99.4811 63.7786 99.4811H58.2701C54.9186 99.4811 52.1644 102.203 52.1644 105.589H31.1925C29.9979 105.589 29.0355 106.552 29.0355 107.747H17.0563C13.6716 107.747 10.9506 110.469 10.9506 113.855V115.979H280.3H288.762Z" fill="#59A173"/>
<path d="M364.852 109.606H357.85C355.229 109.606 353.105 111.73 353.105 114.353V115.979H369.63V114.353C369.63 111.73 367.473 109.606 364.852 109.606Z" fill="#00874B"/>
<path d="M342.586 108.61H334.489C331.469 108.61 328.98 111.066 328.98 114.12V116.012H348.094V114.12C348.094 111.066 345.639 108.61 342.586 108.61Z" fill="#00874B"/>
<path d="M270.279 108.61H262.182C259.163 108.61 256.674 111.066 256.674 114.12V116.012H275.787V114.12C275.787 111.066 273.332 108.61 270.279 108.61Z" fill="#00874B"/>
<path d="M331.237 111H325.762C323.704 111 322.045 112.66 322.045 114.718V115.979H334.987V114.718C334.954 112.66 333.294 111 331.237 111Z" fill="#75AF88"/>
<path d="M60.1616 106.518H52.0648C49.0452 106.518 46.5564 108.975 46.5564 112.029V116.012H65.6701V112.029C65.6369 108.975 63.1813 106.518 60.1616 106.518Z" fill="#00874B"/>
<path d="M128.32 105.689H117.005C112.757 105.689 109.339 109.141 109.339 113.357V115.979H136.019V113.357C135.986 109.108 132.535 105.689 128.32 105.689Z" fill="#00874B"/>
<path d="M162.167 105.689H156.792C152.544 105.689 149.126 109.141 149.126 113.357V115.979H169.866V113.357C169.833 109.108 166.382 105.689 162.167 105.689Z" fill="#00874B"/>
<path d="M25.3522 110.303H20.4742C18.6491 110.303 17.1559 111.796 17.1559 113.622V116.012H28.6374V113.622C28.6374 111.796 27.1773 110.303 25.3522 110.303Z" fill="#00874B"/>
<path d="M51.036 108.909H45.5608C43.5034 108.909 41.8442 110.568 41.8442 112.626V115.979H54.7858V112.626C54.7526 110.568 53.0934 108.909 51.036 108.909Z" fill="#75AF88"/>
<path d="M153.042 110.336H146.837C144.514 110.336 142.622 112.228 142.622 114.552V115.979H157.223V114.552C157.256 112.228 155.365 110.336 153.042 110.336Z" fill="#75AF88"/>
<path d="M213.17 111H207.695C205.638 111 203.979 112.66 203.979 114.718V115.979H216.92V114.718C216.887 112.66 215.228 111 213.17 111Z" fill="#75AF88"/>
<path d="M107.315 112.925C116.424 112.925 123.807 105.539 123.807 96.4271C123.807 87.3155 116.424 79.929 107.315 79.929C98.2069 79.929 90.8231 87.3155 90.8231 96.4271C90.8231 105.539 98.2069 112.925 107.315 112.925Z" fill="#D8DCEC"/>
<path d="M107.315 111.431C115.599 111.431 122.314 104.714 122.314 96.4271C122.314 88.1404 115.599 81.4227 107.315 81.4227C99.0315 81.4227 92.3163 88.1404 92.3163 96.4271C92.3163 104.714 99.0315 111.431 107.315 111.431Z" fill="#DEB408"/>
<path d="M107.315 109.174C114.353 109.174 120.058 103.467 120.058 96.4271C120.058 89.3871 114.353 83.6801 107.315 83.6801C100.278 83.6801 94.5728 89.3871 94.5728 96.4271C94.5728 103.467 100.278 109.174 107.315 109.174Z" fill="#FFD54C"/>
<path d="M107.315 88.4601C107.902 88.4601 108.377 87.9846 108.377 87.3979C108.377 86.8112 107.902 86.3356 107.315 86.3356C106.729 86.3356 106.253 86.8112 106.253 87.3979C106.253 87.9846 106.729 88.4601 107.315 88.4601Z" fill="#DEB408"/>
<path d="M100.431 92.4395C100.724 91.9315 100.55 91.2818 100.043 90.9885C99.5347 90.6951 98.8853 90.8692 98.5921 91.3773C98.2989 91.8853 98.4729 92.535 98.9807 92.8283C99.4886 93.1216 100.138 92.9476 100.431 92.4395Z" fill="#DEB408"/>
<path d="M100.041 101.821C100.548 101.528 100.722 100.878 100.429 100.37C100.136 99.8618 99.4865 99.6878 98.9787 99.9811C98.4708 100.274 98.2968 100.924 98.59 101.432C98.8832 101.94 99.5327 102.114 100.041 101.821Z" fill="#DEB408"/>
<path d="M107.315 106.485C107.902 106.485 108.377 106.01 108.377 105.423C108.377 104.836 107.902 104.361 107.315 104.361C106.729 104.361 106.253 104.836 106.253 105.423C106.253 106.01 106.729 106.485 107.315 106.485Z" fill="#DEB408"/>
<path d="M116.017 101.436C116.31 100.928 116.136 100.278 115.628 99.985C115.12 99.6917 114.471 99.8657 114.178 100.374C113.885 100.882 114.059 101.531 114.566 101.825C115.074 102.118 115.724 101.944 116.017 101.436Z" fill="#DEB408"/>
<path d="M115.64 92.8215C116.148 92.5282 116.322 91.8785 116.029 91.3705C115.736 90.8624 115.086 90.6884 114.578 90.9817C114.071 91.275 113.897 91.9247 114.19 92.4327C114.483 92.9408 115.132 93.1148 115.64 92.8215Z" fill="#DEB408"/>
<path d="M89.0644 96.427C89.0644 100.576 90.3917 104.394 92.615 107.547H41.6785V92.3108C41.6785 88.427 44.8309 85.3066 48.6802 85.3066H51.9653V75.9455H71.4108V85.3066H92.615C90.3917 88.427 89.0644 92.2444 89.0644 96.427Z" fill="#F3B73C"/>
<path d="M86.4428 91.9125C85.2814 91.9125 84.3191 92.8752 84.3191 94.037V98.784C84.3191 99.9458 85.2814 100.908 86.4428 100.908H123.774L129.515 96.9582V91.9125H86.4428V91.9125ZM108.875 98.7176H105.722C104.826 98.7176 104.13 97.9873 104.13 97.1242V95.6968C104.13 94.8005 104.86 94.1034 105.722 94.1034H108.875C109.771 94.1034 110.468 94.8337 110.468 95.6968V97.091C110.501 97.9873 109.771 98.7176 108.875 98.7176Z" fill="#D0942A"/>
<path d="M88.1352 94.8669C88.5201 94.8669 88.8321 94.5548 88.8321 94.1698C88.8321 93.7848 88.5201 93.4727 88.1352 93.4727C87.7503 93.4727 87.4384 93.7848 87.4384 94.1698C87.4384 94.5548 87.7503 94.8669 88.1352 94.8669Z" fill="#44515C"/>
<path d="M88.1352 99.3483C88.5201 99.3483 88.8321 99.0362 88.8321 98.6512C88.8321 98.2662 88.5201 97.9541 88.1352 97.9541C87.7503 97.9541 87.4384 98.2662 87.4384 98.6512C87.4384 99.0362 87.7503 99.3483 88.1352 99.3483Z" fill="#44515C"/>
<path d="M97.2274 94.8669C97.6122 94.8669 97.9242 94.5548 97.9242 94.1698C97.9242 93.7848 97.6122 93.4727 97.2274 93.4727C96.8425 93.4727 96.5305 93.7848 96.5305 94.1698C96.5305 94.5548 96.8425 94.8669 97.2274 94.8669Z" fill="#44515C"/>
<path d="M97.2274 99.3483C97.6122 99.3483 97.9242 99.0362 97.9242 98.6512C97.9242 98.2662 97.6122 97.9541 97.2274 97.9541C96.8425 97.9541 96.5305 98.2662 96.5305 98.6512C96.5305 99.0362 96.8425 99.3483 97.2274 99.3483Z" fill="#44515C"/>
<path d="M114.018 94.8669C114.403 94.8669 114.715 94.5548 114.715 94.1698C114.715 93.7848 114.403 93.4727 114.018 93.4727C113.633 93.4727 113.321 93.7848 113.321 94.1698C113.321 94.5548 113.633 94.8669 114.018 94.8669Z" fill="#44515C"/>
<path d="M114.018 99.3483C114.403 99.3483 114.715 99.0362 114.715 98.6512C114.715 98.2662 114.403 97.9541 114.018 97.9541C113.633 97.9541 113.321 98.2662 113.321 98.6512C113.321 99.0362 113.633 99.3483 114.018 99.3483Z" fill="#44515C"/>
<path d="M123.11 94.8669C123.495 94.8669 123.807 94.5548 123.807 94.1698C123.807 93.7848 123.495 93.4727 123.11 93.4727C122.726 93.4727 122.414 93.7848 122.414 94.1698C122.414 94.5548 122.726 94.8669 123.11 94.8669Z" fill="#44515C"/>
<path d="M123.11 99.3483C123.495 99.3483 123.807 99.0362 123.807 98.6512C123.807 98.2662 123.495 97.9541 123.11 97.9541C122.726 97.9541 122.414 98.2662 122.414 98.6512C122.414 99.0362 122.726 99.3483 123.11 99.3483Z" fill="#44515C"/>
<path d="M72.3731 85.2734C72.2736 87.1324 72.2072 88.4602 72.2072 88.4602H54.2218C48.8461 88.4602 44.499 92.8088 44.499 98.1864V107.514H41.6453V92.2777C41.6453 88.3938 44.7977 85.2734 48.647 85.2734H51.9321V75.9124H71.3776V85.2734H72.3731Z" fill="#FFC63E"/>
<path d="M44.5322 108.012H40.9815L38.2605 105.423V101.738H44.5322V108.012Z" fill="#D0942A"/>
<path d="M98.256 80.0617V69.2068C98.256 61.8707 92.3162 55.8955 84.9495 55.8955H66.8977V75.9123L72.373 88.9249H90.5907C92.1503 85.207 94.8713 82.1198 98.256 80.0617Z" fill="#333E48"/>
<path d="M84.9828 58.5179H69.5525V75.348L69.7848 75.8791H73.4681C77.2842 75.8791 80.4035 78.9995 80.4035 82.817V86.2693H88.9316C90.5244 83.2485 92.8473 80.5929 95.6347 78.6012V69.1737C95.6347 63.2981 90.8563 58.5179 84.9828 58.5179Z" fill="#6581B8"/>
<path d="M57.1087 112.892C63.2665 112.892 68.2584 107.898 68.2584 101.738C68.2584 95.5783 63.2665 90.5847 57.1087 90.5847C50.951 90.5847 45.9591 95.5783 45.9591 101.738C45.9591 107.898 50.951 112.892 57.1087 112.892Z" fill="#44515C"/>
<path d="M57.1087 107.548C60.3159 107.548 62.9158 104.947 62.9158 101.738C62.9158 98.5301 60.3159 95.9292 57.1087 95.9292C53.9016 95.9292 51.3016 98.5301 51.3016 101.738C51.3016 104.947 53.9016 107.548 57.1087 107.548Z" fill="#DEB408"/>
<path d="M57.1087 105.987C59.4545 105.987 61.3562 104.085 61.3562 101.738C61.3562 99.3917 59.4545 97.4893 57.1087 97.4893C54.7629 97.4893 52.8612 99.3917 52.8612 101.738C52.8612 104.085 54.7629 105.987 57.1087 105.987Z" fill="#FFD54C"/>
<path d="M61.9535 77.2733H55.4163C55.0181 77.2733 54.6863 77.6053 54.6863 78.0036C54.6863 78.402 55.0181 78.7339 55.4163 78.7339H61.9535C62.3517 78.7339 62.6835 78.402 62.6835 78.0036C62.6835 77.6053 62.3517 77.2733 61.9535 77.2733Z" fill="#E2A62C"/>
<path d="M61.9535 80.6924H55.4163C55.0181 80.6924 54.6863 81.0244 54.6863 81.4227C54.6863 81.8211 55.0181 82.153 55.4163 82.153H61.9535C62.3517 82.153 62.6835 81.8211 62.6835 81.4227C62.6835 81.0244 62.3517 80.6924 61.9535 80.6924Z" fill="#E2A62C"/>
<path d="M61.9535 84.1115H55.4163C55.0181 84.1115 54.6863 84.4435 54.6863 84.8418C54.6863 85.2402 55.0181 85.5721 55.4163 85.5721H61.9535C62.3517 85.5721 62.6835 85.2402 62.6835 84.8418C62.6835 84.4435 62.3517 84.1115 61.9535 84.1115Z" fill="#E2A62C"/>
<path d="M156.228 114.087H151.018V94.037C151.018 86.8999 156.825 81.0576 163.993 81.0576H168.008V86.2692H163.993C159.712 86.2692 156.228 89.7548 156.228 94.037V114.087Z" fill="#333E48"/>
<path d="M130.179 114.319C130.179 114.718 130.145 115.116 130.046 115.514H120.522C120.423 115.149 120.389 114.751 120.389 114.319C120.389 113.755 120.489 113.191 120.655 112.693C121.319 110.767 123.144 109.406 125.301 109.406C125.699 109.406 126.097 109.44 126.462 109.539C128.088 109.938 129.382 111.133 129.946 112.693C130.079 113.191 130.179 113.722 130.179 114.319Z" fill="#333E48"/>
<path d="M154.867 112.892C154.867 113.29 154.834 113.689 154.734 114.087C154.602 114.585 154.403 115.05 154.137 115.481H145.808C145.742 115.348 145.675 115.249 145.609 115.116C145.576 115.05 145.543 114.983 145.509 114.917C145.244 114.319 145.078 113.622 145.078 112.892C145.078 112.826 145.078 112.759 145.078 112.66C145.111 112.029 145.244 111.431 145.509 110.867C146.273 109.174 147.998 107.979 149.989 107.979C150.022 107.979 150.055 107.979 150.089 107.979C150.421 107.979 150.719 108.012 151.018 108.079C153.175 108.543 154.801 110.402 154.9 112.66C154.867 112.759 154.867 112.826 154.867 112.892Z" fill="#333E48"/>
<path d="M145.708 115.116C148.421 115.116 150.62 112.916 150.62 110.203C150.62 107.49 148.421 105.29 145.708 105.29C142.996 105.29 140.797 107.49 140.797 110.203C140.797 112.916 142.996 115.116 145.708 115.116Z" fill="#333E48"/>
<path d="M145.709 112.892C145.709 113.589 145.642 114.253 145.509 114.917C145.509 114.983 145.476 115.05 145.476 115.116C145.443 115.249 145.41 115.382 145.377 115.481H126.197C125.964 114.651 125.865 113.788 125.865 112.892C125.865 112.826 125.865 112.759 125.865 112.66C125.898 111.564 126.097 110.502 126.462 109.506C127.823 105.689 131.506 102.933 135.82 102.933C138.674 102.933 141.262 104.128 143.054 106.087C143.353 106.386 143.618 106.718 143.85 107.05C144.182 107.514 144.481 107.979 144.713 108.51C145.078 109.24 145.344 110.037 145.543 110.867C145.675 111.465 145.742 112.062 145.742 112.66C145.709 112.759 145.709 112.826 145.709 112.892Z" fill="#333E48"/>
<path d="M164.424 115.481H12.5101C12.5101 113.921 13.7711 112.66 15.3307 112.66H161.636C162.4 112.66 163.13 112.991 163.627 113.489C164.125 114.021 164.424 114.718 164.424 115.481Z" fill="#333E48"/>
<path d="M132.236 106.419C132.786 106.419 133.231 105.973 133.231 105.423C133.231 104.873 132.786 104.427 132.236 104.427C131.686 104.427 131.24 104.873 131.24 105.423C131.24 105.973 131.686 106.419 132.236 106.419Z" fill="#53616E"/>
<path d="M144.68 108.51C145.23 108.51 145.675 108.064 145.675 107.514C145.675 106.964 145.23 106.518 144.68 106.518C144.13 106.518 143.684 106.964 143.684 107.514C143.684 108.064 144.13 108.51 144.68 108.51Z" fill="#53616E"/>
<path d="M135.488 105.755C135.873 105.755 136.185 105.443 136.185 105.058C136.185 104.673 135.873 104.361 135.488 104.361C135.103 104.361 134.791 104.673 134.791 105.058C134.791 105.443 135.103 105.755 135.488 105.755Z" fill="#53616E"/>
<path d="M132.236 109.838C132.621 109.838 132.933 109.526 132.933 109.141C132.933 108.756 132.621 108.444 132.236 108.444C131.851 108.444 131.539 108.756 131.539 109.141C131.539 109.526 131.851 109.838 132.236 109.838Z" fill="#53616E"/>
<path d="M124.67 111.796C125 111.796 125.268 111.529 125.268 111.199C125.268 110.869 125 110.601 124.67 110.601C124.34 110.601 124.073 110.869 124.073 111.199C124.073 111.529 124.34 111.796 124.67 111.796Z" fill="#53616E"/>
<path d="M234.165 62.8811L230.58 63.9805L235.569 80.2622L239.154 79.1627L234.165 62.8811Z" fill="#E4E5E6"/>
<path d="M238.346 79.3936L236.379 79.9968L240.036 91.9304L242.003 91.3271L238.346 79.3936Z" fill="#44515C"/>
<path d="M147.766 45.1402C146.87 44.9742 145.974 45.5385 145.808 46.4348L138.076 84.9082C137.91 85.8045 138.474 86.7008 139.37 86.8667C140.266 87.0327 141.162 86.4684 141.328 85.5721L149.06 47.0987C149.259 46.2024 148.662 45.3393 147.766 45.1402Z" fill="#A9C0E4"/>
<path d="M257.404 89.9871H159.347V97.4229H257.404V89.9871Z" fill="#F3B73C"/>
<path d="M257.371 97.4229H173.583V103H257.371V97.4229Z" fill="#333E48"/>
<path d="M175.673 115.514C182.417 115.514 187.885 110.045 187.885 103.299C187.885 96.5519 182.417 91.0826 175.673 91.0826C168.929 91.0826 163.462 96.5519 163.462 103.299C163.462 110.045 168.929 115.514 175.673 115.514Z" fill="#44515C"/>
<path d="M175.673 110.768C179.797 110.768 183.139 107.424 183.139 103.299C183.139 99.1736 179.797 95.8296 175.673 95.8296C171.55 95.8296 168.207 99.1736 168.207 103.299C168.207 107.424 171.55 110.768 175.673 110.768Z" fill="#B6B8BA"/>
<path d="M175.673 108.079C178.312 108.079 180.451 105.939 180.451 103.299C180.451 100.659 178.312 98.5185 175.673 98.5185C173.034 98.5185 170.895 100.659 170.895 103.299C170.895 105.939 173.034 108.079 175.673 108.079Z" fill="#E4E5E6"/>
<path d="M204.742 115.514C211.486 115.514 216.953 110.045 216.953 103.299C216.953 96.5519 211.486 91.0826 204.742 91.0826C197.998 91.0826 192.53 96.5519 192.53 103.299C192.53 110.045 197.998 115.514 204.742 115.514Z" fill="#44515C"/>
<path d="M204.742 110.768C208.865 110.768 212.208 107.424 212.208 103.299C212.208 99.1736 208.865 95.8296 204.742 95.8296C200.618 95.8296 197.276 99.1736 197.276 103.299C197.276 107.424 200.618 110.768 204.742 110.768Z" fill="#B6B8BA"/>
<path d="M204.742 108.079C207.381 108.079 209.52 105.939 209.52 103.299C209.52 100.659 207.381 98.5185 204.742 98.5185C202.103 98.5185 199.963 100.659 199.963 103.299C199.963 105.939 202.103 108.079 204.742 108.079Z" fill="#E4E5E6"/>
<path d="M257.371 47.3311V106.95H302.799V53.0407C302.799 49.8872 300.244 47.3311 297.091 47.3311H257.371Z" fill="#FFC63E"/>
<path d="M294.47 96.6926V108.045H300.045C303.23 108.045 305.819 105.456 305.819 102.269V96.6926H294.47Z" fill="#44515C"/>
<path d="M301.67 82.5181H297.058V94.3025H301.67V82.5181Z" fill="#E4E5E6"/>
<path d="M301.67 82.5181H297.058V88.4269H301.67V82.5181Z" fill="#EF3D55"/>
<path d="M300.144 55.2315H275.024V75.016H300.144V55.2315Z" fill="#6581B8"/>
<path d="M264.193 74.9852H270V55.2008H264.193V74.9852Z" fill="#6581B8"/>
<path d="M280.964 77.6384H275.024V79.7629H280.964V77.6384Z" fill="#F3B73C"/>
<path d="M273.498 115.514C280.242 115.514 285.709 110.045 285.709 103.299C285.709 96.5519 280.242 91.0826 273.498 91.0826C266.754 91.0826 261.286 96.5519 261.286 103.299C261.286 110.045 266.754 115.514 273.498 115.514Z" fill="#44515C"/>
<path d="M273.498 110.768C277.621 110.768 280.964 107.424 280.964 103.299C280.964 99.1736 277.621 95.8296 273.498 95.8296C269.374 95.8296 266.032 99.1736 266.032 103.299C266.032 107.424 269.374 110.768 273.498 110.768Z" fill="#B6B8BA"/>
<path d="M273.498 108.079C276.137 108.079 278.276 105.939 278.276 103.299C278.276 100.659 276.137 98.5185 273.498 98.5185C270.859 98.5185 268.719 100.659 268.719 103.299C268.719 105.939 270.859 108.079 273.498 108.079Z" fill="#E4E5E6"/>
<path d="M252.161 97.4562V99.9126C252.161 101.938 250.502 103.597 248.477 103.597H232.549C230.525 103.597 228.866 101.938 228.866 99.9126V97.4562C228.866 95.4312 230.525 93.7715 232.549 93.7715H248.477C250.535 93.7715 252.161 95.398 252.161 97.4562Z" fill="#6D7E8F"/>
<path d="M252.161 98.6843V99.9126C252.161 101.937 250.502 103.597 248.477 103.597H232.549C230.525 103.597 228.866 101.937 228.866 99.9126V98.6843H252.161Z" fill="#657585"/>
<path d="M236.166 93.4395H234.375V103.896H236.166V93.4395Z" fill="#53616E"/>
<path d="M246.719 93.4395H244.927V103.896H246.719V93.4395Z" fill="#53616E"/>
<path d="M161.869 93.4395H157.986V100.211H161.869V93.4395Z" fill="#44515C"/>
<path d="M252.559 0.160488L237.295 5.40535L213.535 21.0072L145.609 44.4099L161.305 89.9871L250.369 59.3146L235.237 15.3972H235.271L244.562 9.25602L254.517 5.83689C256.077 5.30576 256.906 3.5796 256.375 2.01942C255.844 0.459238 254.119 -0.370638 252.559 0.160488Z" fill="#CCD9EF"/>
<path d="M173.284 80.958C172.421 81.2567 171.459 80.792 171.16 79.9289L159.612 46.302C159.314 45.4389 159.778 44.4762 160.641 44.1775C161.504 43.8787 162.466 44.3435 162.765 45.2065L174.346 78.8335C174.611 79.6965 174.147 80.626 173.284 80.958Z" fill="#A9C0E4"/>
<path d="M185.695 76.6758C184.832 76.9746 183.869 76.5098 183.571 75.6467L171.99 42.0198C171.691 41.1567 172.156 40.1941 173.018 39.8953C173.881 39.5966 174.844 40.0613 175.142 40.9244L186.723 74.5513C187.022 75.4144 186.557 76.377 185.695 76.6758Z" fill="#A9C0E4"/>
<path d="M198.105 72.3936C197.242 72.6924 196.28 72.2276 195.981 71.3646L184.4 37.7376C184.102 36.8746 184.566 35.9119 185.429 35.6131C186.292 35.3144 187.254 35.7791 187.553 36.6422L199.134 70.2691C199.432 71.1322 198.968 72.0949 198.105 72.3936Z" fill="#A9C0E4"/>
<path d="M210.516 68.1114C209.653 68.4102 208.691 67.9454 208.392 67.0823L196.811 33.4554C196.512 32.5923 196.977 31.6297 197.84 31.3309C198.702 31.0322 199.665 31.4969 199.963 32.36L211.544 65.9869C211.843 66.8832 211.378 67.8126 210.516 68.1114Z" fill="#A9C0E4"/>
<path d="M222.926 63.8292C222.063 64.128 221.101 63.6632 220.803 62.8002L209.221 29.1733C208.923 28.3102 209.387 27.3475 210.25 27.0488C211.113 26.75 212.075 27.2147 212.374 28.0778L223.955 61.7047C224.254 62.601 223.789 63.5305 222.926 63.8292Z" fill="#A9C0E4"/>
<path d="M235.337 59.5802C234.474 59.879 233.512 59.4142 233.213 58.5512L221.665 24.9242C221.367 24.0612 221.831 23.0985 222.694 22.7997C223.557 22.501 224.519 22.9657 224.818 23.8288L236.399 57.4557C236.664 58.3188 236.2 59.2815 235.337 59.5802Z" fill="#A9C0E4"/>
<path d="M382.339 115.182H5.90665C2.65468 115.182 0 117.838 0 121.091C0 124.344 2.65468 127 5.90665 127H382.373C385.625 127 388.279 124.344 388.279 121.091C388.279 117.838 385.625 115.182 382.339 115.182Z" fill="#657585"/>
<path d="M7.49951 113.921C7.49951 114.784 8.19636 115.481 9.05913 115.481H21.7684C22.6312 115.481 23.328 114.784 23.328 113.921C23.328 113.058 22.6312 112.361 21.7684 112.361H9.05913C8.19636 112.394 7.49951 113.091 7.49951 113.921Z" fill="#E19226"/>
<path d="M20.6069 112.394H10.1873L10.7514 110.701L11.415 108.709L11.946 107.05L12.6096 105.058L13.4392 102.568H17.3549L18.1845 105.058L18.8481 107.05L19.4123 108.709L20.0759 110.701L20.6069 112.394Z" fill="#FBAD18"/>
<path d="M18.8482 107.05H11.946L12.6097 105.058H18.1845L18.8482 107.05Z" fill="#E4E5E6"/>
<path d="M20.0759 110.701H10.7513L11.415 108.709H19.4122L20.0759 110.701Z" fill="#E4E5E6"/>
<path d="M25.2526 113.921C25.2526 114.784 25.9494 115.481 26.8122 115.481H39.5214C40.3842 115.481 41.0811 114.784 41.0811 113.921C41.0811 113.058 40.3842 112.361 39.5214 112.361H26.8122C25.9494 112.394 25.2526 113.091 25.2526 113.921Z" fill="#E19226"/>
<path d="M38.3931 112.394H27.9403L28.5044 110.701L29.1681 108.709L29.7322 107.05L30.3959 105.058L31.1923 102.568H35.1411L35.9707 105.058L36.6012 107.05L37.1653 108.709L37.829 110.701L38.3931 112.394Z" fill="#FBAD18"/>
<path d="M36.6013 107.05H29.7323L30.396 105.058H35.9708L36.6013 107.05Z" fill="#E4E5E6"/>
<path d="M37.8291 110.701H28.5045L29.1682 108.709H37.1654L37.8291 110.701Z" fill="#E4E5E6"/>
<path d="M309.867 75.348V80.5929C309.867 81.3896 310.497 82.0203 311.294 82.0203H319.026V73.8874H311.294C310.531 73.9206 309.867 74.5513 309.867 75.348Z" fill="#EF3D55"/>
<path d="M311.227 80.6272V75.3823C311.227 74.5856 311.858 73.9549 312.654 73.9549H311.294C310.497 73.9549 309.867 74.5856 309.867 75.3823V80.6272C309.867 81.4239 310.497 82.0546 311.294 82.0546H312.654C311.858 82.0546 311.227 81.3907 311.227 80.6272Z" fill="#F1617A"/>
<path d="M319.822 73.9206H319.059V90.7839H319.822V73.9206Z" fill="#333E48"/>
<path d="M342.353 97.6553H338.504V113.987H342.353V97.6553Z" fill="#FFD54C"/>
<path d="M337.874 113.523V115.182H343.283V113.523C343.283 112.66 342.586 111.929 341.69 111.929H339.433C338.604 111.962 337.874 112.66 337.874 113.523Z" fill="#44515C"/>
<path d="M336.679 97.6553H332.83V113.987H336.679V97.6553Z" fill="#FFD54C"/>
<path d="M332.199 113.523V115.182H337.608V113.523C337.608 112.66 336.911 111.929 336.015 111.929H333.759C332.929 111.962 332.199 112.66 332.199 113.523Z" fill="#44515C"/>
<path d="M351.379 89.3896H342.055C340.927 89.3896 340.031 88.4934 340.031 87.3647C340.031 86.2361 340.927 85.3398 342.055 85.3398H349.388V79.3646C349.388 78.236 350.284 77.3397 351.413 77.3397C352.541 77.3397 353.437 78.236 353.437 79.3646V87.3647C353.404 88.4934 352.508 89.3896 351.379 89.3896Z" fill="#EFC7B0"/>
<path d="M346.966 85.1074H340.595V89.6552H346.966V85.1074Z" fill="#995699"/>
<path d="M334.754 89.3896H319.291C318.163 89.3896 317.267 88.4934 317.267 87.3647C317.267 86.2361 318.163 85.3398 319.291 85.3398H334.754C335.883 85.3398 336.779 86.2361 336.779 87.3647C336.779 88.4934 335.883 89.3896 334.754 89.3896Z" fill="#EFC7B0"/>
<path d="M334.754 85.1074H327.852V89.6552H334.754V85.1074Z" fill="#995699"/>
<path d="M343.382 89.4892V90.485H332.133V89.4892C332.133 87.7298 332.929 86.1364 334.223 85.1074C334.622 84.7754 335.086 84.5099 335.584 84.3107C336.248 84.0119 337.011 83.8459 337.774 83.8459C338.571 83.8459 339.301 84.0119 339.997 84.3107C340.495 84.5099 340.927 84.8086 341.358 85.1406C342.586 86.1364 343.382 87.7298 343.382 89.4892Z" fill="#995699"/>
<path d="M337.741 85.9705C336.779 85.9705 335.982 85.1738 335.982 84.2111V81.9207H339.5V84.2111C339.5 85.207 338.703 85.9705 337.741 85.9705Z" fill="#DFB5A0"/>
<path d="M331.005 76.045V78.8334C331.005 79.7961 331.801 80.5928 332.763 80.5928H343.083C344.046 80.5928 344.842 79.7961 344.842 78.8334V76.045H331.005Z" fill="#333E48"/>
<path d="M337.741 69.074C334.223 69.074 331.37 71.9288 331.37 75.4476V78.2028C331.37 81.7215 334.223 84.5763 337.741 84.5763C341.258 84.5763 344.112 81.7215 344.112 78.2028V75.4476C344.112 71.9288 341.258 69.074 337.741 69.074Z" fill="#EFC7B0"/>
<path d="M331.005 74.6509V76.0119H344.809V74.6509C344.809 71.3977 342.187 68.7753 338.935 68.7753H336.845C333.626 68.8085 331.005 71.4309 331.005 74.6509Z" fill="#FFD54C"/>
<path d="M337.741 75.4143C338.566 75.4143 339.234 74.7455 339.234 73.9205C339.234 73.0955 338.566 72.4268 337.741 72.4268C336.916 72.4268 336.248 73.0955 336.248 73.9205C336.248 74.7455 336.916 75.4143 337.741 75.4143Z" fill="#DEB408"/>
<path d="M344.245 80.7257H343.316V77.9705H344.245C344.676 77.9705 345.041 78.3356 345.041 78.7671V79.9622C345.041 80.3937 344.676 80.7257 344.245 80.7257Z" fill="#EFC7B0"/>
<path d="M331.27 80.7257H332.199V77.9705H331.27C330.839 77.9705 330.474 78.3356 330.474 78.7671V79.9622C330.474 80.3937 330.806 80.7257 331.27 80.7257Z" fill="#EFC7B0"/>
<path d="M342.353 78.5015H333.493C332.133 78.5015 331.005 77.4061 331.005 76.0118H344.809C344.809 77.4061 343.714 78.5015 342.353 78.5015Z" fill="#DEB408"/>
<path d="M343.382 90.4851V95.5972C343.382 98.7176 340.86 101.24 337.741 101.24C334.622 101.24 332.1 98.7176 332.1 95.5972V90.4851H343.382Z" fill="#FFD54C"/>
<path d="M341.292 85.1074V92.7424H339.931V84.3107C340.462 84.5099 340.893 84.7755 341.292 85.1074Z" fill="#FFD54C"/>
<path d="M335.551 84.2775V92.7091H334.19V85.0742C334.589 84.7755 335.053 84.5099 335.551 84.2775Z" fill="#FFD54C"/>
<path d="M340.064 91.5142H335.418V94.1366H340.064V91.5142Z" fill="#DEB408"/>
<path d="M374.475 90.3523H372.75V115.116H374.475V90.3523Z" fill="#7A4C58"/>
<path d="M360.206 90.3523H358.481V115.116H360.206V90.3523Z" fill="#7A4C58"/>
<path d="M353.072 93.9374V95.9291C353.072 96.9913 353.935 97.8876 355.03 97.8876H377.959C379.021 97.8876 379.917 97.0245 379.917 95.9291V93.9374C379.917 92.8751 379.054 91.9788 377.959 91.9788H355.03C353.968 92.012 353.072 92.8751 353.072 93.9374Z" fill="#FFD54C"/>
<path d="M358.912 92.012H357.186L358.945 97.8876H360.671L358.912 92.012Z" fill="#333E48"/>
<path d="M363.956 92.012H362.23L363.989 97.8876H365.714L363.956 92.012Z" fill="#333E48"/>
<path d="M369 92.012H367.274L369.033 97.8876H370.759L369 92.012Z" fill="#333E48"/>
<path d="M374.044 92.012H372.318L374.077 97.8876H375.802L374.044 92.012Z" fill="#333E48"/>
<path d="M353.072 102.568V104.56C353.072 105.622 353.935 106.518 355.03 106.518H377.959C379.021 106.518 379.917 105.655 379.917 104.56V102.568C379.917 101.506 379.054 100.61 377.959 100.61H355.03C353.968 100.643 353.072 101.506 353.072 102.568Z" fill="#FFD54C"/>
<path d="M358.912 100.643H357.186L358.945 106.518H360.671L358.912 100.643Z" fill="#333E48"/>
<path d="M363.956 100.643H362.23L363.989 106.518H365.714L363.956 100.643Z" fill="#333E48"/>
<path d="M369 100.643H367.274L369.033 106.518H370.759L369 100.643Z" fill="#333E48"/>
<path d="M374.044 100.643H372.318L374.077 106.518H375.802L374.044 100.643Z" fill="#333E48"/>
<path fill-rule="evenodd" clip-rule="evenodd" d="M291.681 84.231L294.741 84.2359L294.34 85.5457L293.057 85.534C293.126 85.2854 293.142 85.1891 293.004 85.1755C292.831 85.1585 292.759 85.2909 292.687 85.5394L292.206 86.967C292.206 86.967 292.152 87.1488 292.338 87.1687C292.501 87.1859 292.565 87.0248 292.565 87.0248L292.656 86.7757L293.927 86.78L293.519 87.9709L290.481 87.9789L291.681 84.231Z" fill="#2684B9"/>
<path fill-rule="evenodd" clip-rule="evenodd" d="M287.916 84.231H291.127L290.825 85.1857L289.004 85.1873L288.863 85.6047L290.687 85.5993L290.388 86.5532L288.576 86.5423L288.39 87.0879L290.244 87.0964L289.953 87.9789H286.702L287.916 84.231Z" fill="#2684B9"/>
<path fill-rule="evenodd" clip-rule="evenodd" d="M285.981 84.231H287.369L286.179 87.9789H284.782L285.23 86.5698L284.276 86.5685L283.826 87.9789H282.457L283.644 84.231H285.062L284.576 85.6289L285.546 85.626L285.981 84.231Z" fill="#2684B9"/>
<path fill-rule="evenodd" clip-rule="evenodd" d="M288.637 82C289.071 82.5297 289.856 83.1407 291.127 83.8637C287.837 83.0483 284.955 83.0042 282.677 84.0998C280.656 85.0722 280.496 87.3972 282.457 88.3439C284.403 89.424 287.4 89.3707 291.127 88.5319C289.913 89.7033 285.161 91.4826 280.901 89.9202C276.729 88.2392 277.308 83.9664 281.037 82.5306C282.873 81.8236 285.828 81.8402 289.042 82.827L288.637 82Z" fill="#2684B9"/>
</svg>
