<svg width="389" height="225" viewBox="0 0 389 225" fill="none" xmlns="http://www.w3.org/2000/svg">
<path d="M239.331 9.87404L244.247 12.7407L246.732 11.9259L247.107 12.7995L247.437 13.2216L248.818 13.8162L251.263 14.6604L252.617 15.4129L254.978 17.9933L255.991 18.5512L256.512 18.676L256.96 18.665L257.456 18.4925L257.955 18.1438L258.509 17.5455L258.84 17.3729L260.279 17.0279L261.325 15.9818L261.505 15.8864L261.703 15.9708L261.997 16.2718L262.654 17.3509L262.639 17.707L262.368 18.4814L262.136 18.8412L262.177 19.2156L262.874 19.6927L263.33 20.5883L263.572 21.2674L263.924 21.6271L264.626 21.5904L265.371 21.6968L265.837 21.8914L266.16 22.174L266.615 22.7943L266.659 23.165L266.891 23.3559H267.401L268.855 23.6642L269.225 23.8111L269.732 24.3359L270.922 24.736L271.219 25.1068L271.391 25.617L271.204 26.0391L271.428 26.5603L271.516 27.0265L271.212 27.533L271.223 27.911L270.984 28.1423L269.949 28.4469L270.085 28.8764L270.595 29.1187L270.775 29.4967L271.615 29.6949L272.217 30.0803L272.302 30.5979L272.625 31.1154L273.051 30.7007L273.381 30.5171L273.847 30.5245L274.538 30.7924L275.393 30.6419L275.892 30.6493L275.4 44.8469L275.437 56.8532L275.393 65.7616L275.246 74.013L275.577 79.3426L275.558 81.1669L275.059 82.2166L275.063 83.193L274.578 84.8778L274.178 85.7146L273.106 86.6543L273.612 88.273L272.786 88.2326L271.744 88.7061L271.021 89.3375L270.51 89.9248L269.493 90.7139L268.304 91.1727L265.521 91.3966L263.807 91.9509L262.096 92.017L260.94 91.3085L259.982 91.0589L258.252 91.0443L258.212 91.1507L255.378 91.7343L254.405 91.6793L253.406 92.3179L253.017 92.7327L252.015 93.2025L251.435 93.621L250.326 94.7332L249.361 95.0121L248.564 96.0509L248.388 96.6272L247.393 98.1578L246.483 98.1688L245.877 97.721L245.128 97.3796L244.757 96.9024L244.629 95.9738L243.564 95.6875L242.529 95.6288L241.262 95.6838L239.478 95.3718L238.927 94.4762L239.023 93.2025L239.533 92.5529L240.392 92.2739L241.229 90.4717L241.824 89.8L242.966 89.7706L244.06 89.6752L244.959 88.4859L246.05 87.4618L247.639 86.8672L247.988 85.6266L247.826 84.3198L246.74 83.2224L245.447 83.0682L242.977 83.0278L242.698 82.1469L242.452 80.7337L241.446 80.2712L241.027 79.5628L239.933 77.3458L239.922 76.1786L239.809 74.2956L239.952 73.3376L239.137 72.787L239.695 71.6051L240.264 70.7205L240.84 69.3257L240.444 67.9382L239.577 67.028L238.854 66.114L238.131 65.857L237.063 66.2021L236.126 66.782L234.599 67.3106L232.253 65.6772L231.023 63.886L231.901 62.4324L232.408 60.8101L232.822 60.5421L231.897 59.1253L232.191 56.5926L232.224 55.4034L233.322 55.374L234.93 55.4804L235.282 55.3226L235.062 54.9445L235.073 54.4784L234.915 54.082L234.46 53.7333L233.806 53.7296L232.995 52.6064L231.754 52.7239L231.688 51.854L231.71 51.0281L230.587 50.8666L229.471 50.1765L227.987 49.1781L226.317 47.3979L224.324 46.3078L221.475 46.2784L220.641 45.0488L219.514 43.977L218.31 43.1842L216.809 41.3342L216.174 39.6751L216.078 38.5116L215.627 37.2929L215.395 36.5111L214.562 36.2175L213.644 35.733L211.842 35.421L210.942 34.8924L210.006 34.6428L209.103 34.8374L208.002 34.7823L207.282 34.6098L205.946 32.7782L204.613 31.9229L203.277 31.5999L201.9 31.5082L200.05 31.7101L197.862 32.0661L196.529 31.9523L195.817 31.2953L195.109 29.2104L195.057 28.0212L193.897 27.3128L191.595 26.4171L190.428 25.3674L189.83 24.2589L189.444 23.2678L189.143 22.2804L188.468 21.4252L186.526 18.2062L186.951 17.4941L187.895 17.2775L189.272 16.6462L190.222 15.813L190.523 15.2697L191.17 13.2546L191.621 12.7554L193.31 12.7297L194.033 12.1791L194.731 12.1828L195.843 13.5519L196.981 14.3521L197.825 14.3704L198.071 13.2362L198.218 11.5735L198.611 10.0429L199.514 10.4577L202.293 11.9369L217.558 17.4353L222.789 19.6193L231.163 14.7155L239.115 9.841L239.331 9.87404Z" fill="#96ADFB"/>
<path d="M290.827 75.6207L299.946 80.4988L302.09 81.7138L306.869 83.7215L314.032 87.1278L325.706 87.1902L334.994 87.1278L334.568 87.7738L333.628 88.2216L333.291 88.9961L333.313 89.7779L332.325 89.9761L332.366 91.5178L332.656 92.9713L333.173 94.1862L333.192 95.7939L333.059 96.2858L333.603 97.6879L332.266 99.1855L329.539 102.966L328.614 104.009L327.817 105.022L327.131 106.207L327.068 107.943L326.624 109.437L325.119 110.872L323.815 111.864L319.979 115.395L320.445 116.165L320.941 117.421L321.069 118.368L320.948 119.366L321.202 120.141L321.543 121.502L319.983 120.783L317.696 118.834L316.712 118.437L315.394 118.114L313.657 117.039L312.931 116.701L312.101 115.729L311.227 115.413L310.471 115.519L309.953 115.956L309.549 116.731L308.426 117.461L307.552 117.039L306.102 117.395L305.273 117.186L304.957 116.411L303.922 116.378L303.408 116.052L303.103 114.98L303.316 114.066L302.662 114.147L301.653 113.736L300.805 113.504L300.012 113.126L298.951 112.899L298.048 112.227L297.662 111.243L297.67 109.907L297.361 109.368L296.172 109.166L295.819 109.368L295.056 109.261L294.501 108.979L293.44 107.929L292.813 108.244L292.449 108.061L292.225 107.58L291.476 107.096L290.735 107.029L290.47 106.637L290.559 105.936L290.507 104.856L288.738 104.078L287.901 102.79L287.243 101.072L286.722 101.296L284.854 102.427L283.965 102.474L282.75 102.761L281.608 102.687L280.859 102.305L281.179 101.637L281.069 100.668L281.487 100.573L282.801 99.9233L284.167 98.8882L284.898 98.4881L285.092 97.8715L286.087 96.3812L286.458 95.9481L286.777 95.3241L287.078 94.6818L287.086 94.1092L286.737 93.7164L286.039 93.6944L284.883 93.8522L284.982 92.8135L286.017 92.0867L286.898 91.0443L286.975 89.9394L287.456 89.6752L290.485 89.2751L291.524 89.4769L292.783 89.231L293.506 88.618L294.101 87.9684L294.74 88.1629L295.254 88.3831L296.509 87.9867L296.833 87.3407L296.341 86.3166L296.139 85.0943L296.087 83.9308L295.573 82.8626L294.472 81.8569L293.022 81.3027L292.244 80.6456L291.436 77.1513L290.827 75.6207Z" fill="#96ADFB"/>
<path d="M152.722 25.7936L152.946 26.2671L152.587 26.3295L152.359 26.0835L152.032 26.1312L151.919 25.9991L152.326 25.9037L152.473 25.7752L152.722 25.7936ZM180.326 3.94286L187.738 6.6664L191.732 6.65172L195.928 8.81733L198.608 10.047L198.219 11.5776L198.072 13.2403L197.826 14.3745L196.982 14.3562L195.844 13.5597L194.731 12.1869L194.034 12.1832L193.311 12.7338L191.622 12.7595L191.17 13.2624L190.528 15.2775L190.227 15.817L189.276 16.6503L187.899 17.2816L186.956 17.4981L186.53 18.2102L188.472 21.4293L189.148 22.2809L189.449 23.2719L189.834 24.2593L190.432 25.3678L191.6 26.4212L193.902 27.3132L195.062 28.0252L195.113 29.2145L195.822 31.2994L196.538 31.9601L197.87 32.0738L200.058 31.7178L201.912 31.5196L203.285 31.6077L204.625 31.9344L205.958 32.7896L207.294 34.6212L208.017 34.7937L209.115 34.8488L210.018 34.6542L210.954 34.9038L211.854 35.4324L213.656 35.7444L214.578 36.2289L215.407 36.5262L215.639 37.3044L216.094 38.523L216.189 39.6865L216.824 41.3456L218.33 43.1956L219.534 43.9921L220.657 45.0639L221.49 46.2935L224.339 46.3229L226.333 47.413L228.003 49.1932L229.486 50.1916L230.602 50.8817L231.726 51.0432L231.704 51.869L231.77 52.7353L230.811 53.1427L229.776 53.0877L227.761 51.0835L227.104 50.1255L225.683 49.0391L224.57 48.4114L223.51 48.2499L223.491 47.5929L223.587 47.2295L223.326 46.9395L222.992 47.1194L221.883 46.6202L221.711 47.3249L220.998 47.5782L220.565 47.2075L219.464 47.09L219.324 47.4754L218.924 47.5305L217.973 47.4717L219.831 49.0978L221.123 50.1035L221.762 50.2357L221.703 49.6007L222.551 49.7475L223.399 50.7018L224.596 51.3038L225.764 51.5277L226.656 51.7773L227.665 52.493L227.808 53.9099L229.42 54.1631L231.021 54.8385L232.24 55.4221L232.206 56.6114L231.913 59.144L232.838 60.5609L232.423 60.8252L231.916 62.4512L231.039 63.9011L229.872 62.9357L228.275 62.4696L227.023 63.0532L225.881 64.6131L225.503 66.2355L225.4 67.1495L224.178 70.4053L224.563 72.9416L223.135 73.2976L221.608 74.6961L221.876 76.0872L220.987 77.6803L220.059 77.7059L218.535 76.792L214.842 75.3238L213.216 74.4355L211.865 74.4722L212.103 77.0452L211.409 76.9205L211.266 76.7259L211.299 76.5461L210.738 75.889L209.963 75.2944L210.047 75.0044L210.404 75.0742L210.646 75.3054L211.163 75.4082L211.358 75.2981L211.442 75.1219L211.266 74.6998L210.826 74.8723L209.548 74.4208L209.177 74.1235L208.707 74.0391L207.647 74.4832L207.217 75.0301L206.696 75.1549L206.501 74.9567L206.178 74.9053L205.921 74.7402L205.418 74.7989L204.673 74.4025L203.781 74.263L203.568 74.3731L202.951 74.2043L202.533 73.9877L201.997 73.8666L201.446 73.5032L200.866 72.9453L200.726 72.2148L200.312 71.3339L200.572 71.1908L200.723 70.6732L200.646 70.185L200.198 69.4509L199.665 68.926L199.618 68.6324L199.181 68.4672L198.777 68.1222L197.727 67.5422L197.048 67.3073L196.758 67.01L197.173 66.2025L197.143 65.8758L196.049 64.7747L195.66 64.6572L195.356 64.3782L195.15 63.857L194.603 63.3652L192.621 63.3138L192.327 63.3909L191.949 63.7432L191.464 63.3798L190.928 63.4055L191.38 63.6845L191.67 64.0956L191.912 64.1617L192.206 63.9525L192.742 64.0883L193.623 63.6735L193.949 63.6625L194.581 63.9268L195.128 64.5177L195.543 65.1894L196.431 65.751L196.607 66.0924L196.604 66.353L196.354 67.0173L196.431 67.5716L196.64 67.8175L197.419 67.9864L197.999 68.3167L199.482 69.5831L199.669 70.464L199.5 70.9338L199.46 71.9065L199.647 72.6076L199.449 72.993L199.57 73.8556L199.486 74.0317L199.258 74.1419L199.207 74.4649L199.691 76.3552L200.506 77.7096L199.621 76.9058L199.185 76.836L199.104 76.7222L198.634 76.7333L198.392 76.4396L197.041 76.7516L196.615 77.2031L196.875 77.3683L197.169 76.9645L197.558 76.9829L197.815 77.3095L197.503 77.5004L197.272 77.8051L197.353 77.9666L197.547 77.9519L198.153 77.4233L198.186 77.2288L198.057 77.0012L198.27 76.9388L198.546 77.1187L199.423 77.1444L199.794 77.3903L199.937 77.7316L199.871 77.8785L199.464 77.9555L199.9 78.2198L199.981 78.4474L199.636 78.8328L199.823 79.4348L200.036 79.2255L200.826 80.0441L201.325 80.4075L202.878 81.0571L203.234 81.3875L203.439 82.0372L203.843 82.2207L204.401 83.0723L205.161 83.4687L205.565 83.4724L205.811 83.2154L205.954 83.443L205.884 84.1074L205.752 84.3349L205.51 84.3019L205.124 83.9238L204.409 83.8688L204.052 83.6559L203.634 83.2631L203.348 82.7236L203.003 83.0466L202.775 82.9952L202.595 83.1383L202.867 83.4173L203.307 83.3733L203.674 84.0413L203.983 84.111L204.207 84.5038L204.695 84.379L204.981 84.8708L205.143 84.8892L205.242 85.0874L204.923 85.5315L204.339 87.3925L203.516 88.2184L202.676 88.4092L201.343 88.2954L200.954 88.7102L199.419 89.0259L198.395 89.3489L196.985 89.5141L195.873 90.5822L195.88 91.643L196.633 92.2156L198.142 92.5569L199.478 92.7331L201.119 93.3021L202.738 96.2018L204.265 96.4147L203.766 97.4865L203.179 98.4775L202.83 99.6301L203.091 101.487L202.272 103.29L201.24 104.185L200.326 105.415L199.996 105.066L198.95 104.262L197.676 103.602L197.661 103.326L197.856 103.135L197.94 102.812L197.529 101.722L195.627 100.243L194.981 99.8797L194.221 99.6301L193.428 99.5089L193.417 99.1529L192.855 98.6757L191.259 97.703L190.579 97.5819L189.449 97.035L188.784 96.8331L188.524 96.8478L188.325 97.2515L187.709 97.1818L186.901 96.8478L186.563 96.4881L186.207 96.3046L185.476 96.1834L184.551 96.3229L184.335 96.9212L184.136 97.0827L183.843 97.0644L182.551 96.3229L182.426 95.8678L182.202 95.7209L181.501 96.1687L181.159 96.1174L181.027 96.3119L180.851 96.2605L180.792 95.6585L180.084 95.0823L179.79 95.0492L179.155 95.3686L178.409 95.3612L177.488 95.0125L176.724 95.2181L176.306 94.9208L175.546 94.8327L174.9 94.2747L174.265 94.3995L173.828 94.2968L172.723 94.3041L172.466 94.1389L172.389 93.6507L172.033 93.3388L171.515 93.1883L171.06 93.2176L170.799 93.3608L170.814 93.5884L170.7 93.7645L169.683 93.2543L169.83 92.946L170.043 92.8506L170.142 92.5423L169.988 91.5329L169.702 90.9309L169.202 90.2445L169.268 89.9839L168.82 89.103L167.422 87.3558L167.216 86.9006L166.699 86.4271L166.196 86.1482L164.841 84.7424L164.455 84.1881L164.202 83.2264L164.011 82.8998L163.141 82.1436L163.013 81.8353L162.836 81.7692L162.517 81.248L161.471 79.923L161.445 79.1925L161.027 78.7337L160.524 76.6011L160.072 76.0432L160.028 75.5403L159.231 73.7785L158.123 72.2736L158.174 71.8661L158.002 71.1504L158.024 70.5007L157.209 68.7058L157.15 67.99L157.366 67.278L156.97 65.8758L157.84 65.0866L158.167 64.5838L157.88 63.7506L157.495 63.1119L156.915 62.5063L156.691 62.1135L156.35 61.9961L156.188 61.7832L156.008 61.8639L155.766 61.618L155.586 61.5996L155.557 61.3721L155.821 60.7407L156.295 60.403L156.537 60.3884L156.761 60.6343L156.959 60.2966L157.253 60.3296L157.418 60.0874L157.554 59.5184L157.8 59.3753L158.413 58.1273L158.626 58.0796L158.806 57.8704L159.037 57.3014L159.231 57.3675L159.375 57.6942L160.186 57.83L160.461 57.6868L160.726 57.3969L161.126 55.969L160.939 55.0257L161.394 55.0771L161.57 55.4185L161.996 55.1946L162.359 54.644L162.429 54.0934L162.187 53.8621L162.047 52.9188L161.511 52.5738L161.596 52.3793L161.434 52.2471L161.107 52.1957L160.931 52.0159L160.92 51.4286L160.549 51.0358L160.828 50.7605L160.619 50.3531L160.116 50.0081L160.149 49.8613L161.24 49.6741L161.456 49.2703L161.75 49.0611L161.72 48.8005L161.933 48.5105L161.919 48.382L162.345 48.059L162.814 48.2095L163.156 48.1471L163.332 48.5729L163.769 48.951L164.243 48.9363L165.568 47.8241L166.383 47.5231L167.04 46.8955L167.088 47.0423L167.378 47.2405L167.671 47.2258L168.083 46.6936L168.016 46.5468L168.083 46.3853L167.811 45.8641L167.859 45.7503L168.608 45.6915L169.147 45.4529L169.345 45.2584L169.221 44.6711L169.353 44.4766L169.903 44.5316L170.069 44.3041L170.865 44.4582L171.064 44.2967L171.214 43.9737L171.298 43.4231L171.787 43.5076L171.923 42.8432L172.187 42.6009L172.594 42.4431L172.697 41.8742L172.609 41.6172L172.367 41.3713L170.986 40.8868L170.66 41.0153L170.168 41.4521L169.452 41.5915L169.445 42.4064L169.184 42.5165L169.019 43.0047L168.417 43.1772L168.27 43.4195L167.862 43.269L167.833 43.1222L168.453 42.7551L168.637 42.1715L168.362 41.9733L168.593 41.5365L168.754 41.5548L168.905 41.3126L169.261 41.3309L169.525 40.9088L169.478 40.7767L169.169 40.6445L168.876 40.6592L169.173 40.2885L169.529 40.2591L169.746 39.8223L169.569 39.5764L169.621 39.4296L170.142 39.5654L170.942 39.0369L171.06 38.7616L170.528 36.2509L170.168 35.2892L170.344 34.7497L170.252 34.0156L170.605 32.863L170.641 32.4079L170.175 31.7031L169.382 30.9617L169.059 30.4882L168.725 29.6733L167.73 29.7614L167.425 29.3833L166.919 29.4127L166.677 29.1668L166.401 29.1301L165.781 29.2402L165.164 28.8438L164.595 28.8401L164.165 28.8805L163.692 29.1191L163.262 29.7504L162.389 29.2218L161.383 28.9062L161.056 28.9209L160.927 28.4951L160.737 28.1684L160.491 27.9885L160.362 27.6765L160.432 27.1737L161.471 27.3939L161.522 27.1003L161.089 26.2487L160.175 26.502L159.639 26.4653L158.762 26.0835L156.886 26.0395L156.375 24.7768L156.133 24.5786L155.27 24.3253L153.387 23.5105L153.016 23.1985L152.399 22.9672L152.025 22.9819L151.764 23.1765L150.59 23.4775L150.215 23.3453L150.887 22.9416L151.816 22.7544L152.436 22.435L152.682 22.1781L153.725 22.0239L154.151 21.8L154.771 21.7229L154.984 21.5798L155.131 21.3045L155.964 21.132L156.346 20.3685L156.056 20.0088L154.951 19.4142L155.718 19.4032L155.916 19.2894L157.869 19.6491L158.13 19.4545L158.637 19.4912L159.041 19.7555L159.301 19.6931L159.753 20.1703L159.782 20.3979L159.455 20.6732L159.613 21.4073L159.822 21.6055L160.278 21.6569L160.729 22.068L161.35 22.1047L161.61 21.9432L161.676 21.7156L161.596 21.4697L161.045 20.8934L161.096 20.7135L161.456 20.7172L161.739 20.2143L162.047 20.3465L162.179 20.1336L162.833 20.0895L163.079 20.174L163.24 20.5484L163.6 20.2584L164.235 20.3465L164.466 20.1373L164.922 20.1263L165.296 20.2437L165.538 20.4566L165.704 20.3428L165.997 20.3795L166.192 20.6585L166.107 20.9668L166.431 21.2311L166.787 21.2825L166.952 21.1063L166.959 20.4052L167.418 20.2621L167.583 19.9721L167.488 19.7115L166.438 19.1646L166.599 18.8232L167.201 18.9407L167.319 18.5846L167.598 18.4562L168.185 18.4268L168.45 18.1368L168.519 17.634L168.376 17.3073L168.086 17.0614L167.253 16.6319L166.159 15.3472L165.898 15.1967L165.377 15.1453L165.006 14.8664L164.422 14.6168L163.824 13.879L164.367 13.1339L164.922 13.1376L165.006 12.976L164.83 12.7154L164.863 12.5539L165.124 12.3924L165.564 12.4622L165.729 12.3154L166.375 12.9063L166.471 13.266L166.599 13.3798L168.13 13.6698L168.736 13.4936L169.114 13.1559L169.522 13.0128L169.738 12.7044L169.823 12.3961L169.668 11.2032L169.25 10.759L168.894 10.6269L168.472 10.2011L167.888 10.2268L169.052 8.12727L170.23 6.30669L170.513 5.66434L172.95 1.78459L173.255 1.21198L173.479 0.338394L173.754 0.10715L174.081 0.0924683L177.121 0.558626L177.653 0.701777L178.182 1.22299L179.533 2.95916L179.951 3.70061L180.326 3.94286Z" fill="#96ADFB"/>
<path d="M285.467 30.8108L286.032 31.7101L286.23 32.1726L287.053 32.613L287.302 32.8736L287.589 33.0572L288.04 33.193L288.437 33.4352L288.576 33.6738L288.664 34.2684L289.017 34.6428L289.63 34.8337L290.445 34.9732L290.768 35.142L290.907 35.4173L290.959 35.6889L291.278 36.111L291.803 36.1734L292.405 36.0009L293.246 35.6706L293.705 35.2448L294.957 35.3182L295.445 35.4724L296.117 35.41L296.543 34.9622L297.104 34.6171L297.504 34.2024L297.743 33.6958L298.29 33.4499L298.562 33.4169L299.722 33.5086L300.496 32.8516L301.109 32.0441L301.311 31.8679L301.855 31.9376L303.253 31.9009L303.654 31.7394L304.733 32.2423L304.626 32.9874L304.41 33.6518L305.577 34.7015L306.396 35.3366L306.917 35.8321L307.343 36.7974L305.423 36.8084L303.118 36.724L302.273 37.5315L301.414 37.7261L300.632 37.7664L299.876 38.6584L299.307 39.565L298.294 39.5063L297.772 40.6258L297.618 42.7951L297.846 43.4044L298.455 44.1715L297.559 46.2344L297.534 47.6365L298.452 49.7324L298.899 51.5236L298.367 52.9808L298.602 53.825L297.813 54.3536L296.711 54.3426L295.412 56.2439L295.228 57.268L295.889 59.1363L296.917 60.4871L297.258 62.4068L297.376 64.4806L296.836 65.6001L296.069 66.8922L295.522 68.7091L294.938 69.7001L294.186 70.8013L293.407 71.7336L292.06 72.6622L288.679 74.96L288.066 75.7602L288.11 76.6925L288.003 79.0893L287.409 79.8455L286.572 80.0363L285.327 80.1134L285.026 80.7154L284.978 81.332L284.802 81.7798L285.199 82.4919L286.076 83.7583L285.893 84.8227L285.518 85.8725L284.619 86.9113L283.495 87.5793L282.431 88.0124L281.373 87.9977L280.959 88.2216L280.096 88.3501L278.774 88.7465L278.451 88.5446L277.394 88.4015L276.116 88.842L275.228 88.7575L274.89 88.6841L274.42 88.4822L273.613 88.273L273.106 86.6543L274.178 85.7147L274.578 84.8778L275.063 83.193L275.059 82.2166L275.558 81.1669L275.577 79.3426L275.246 74.013L275.393 65.7616L275.437 56.8532L275.4 44.8469L275.892 30.6493L276.329 30.6566L277.475 30.4988L277.926 31.7725L278.558 31.9083L279.288 31.4568L279.586 31.4421L280.048 31.5486L281.168 32.1689L281.869 32.2166L282.299 32.0955L282.497 31.4384L282.827 31.1044L283.125 31.02L283.44 31.0861L284.09 31.3724L284.156 30.8805L284.31 30.4841L284.545 30.363L285.037 30.3887L285.467 30.8108Z" fill="#96ADFB"/>
<path d="M314.036 26.1382L314.542 28.2634L315.372 30.5906L314.025 30.8035L313.602 29.5298L313.254 28.1827L312.622 26.8393L312.134 28.0432L312.552 29.3169L313.114 30.7337L313.463 32.0771L313.393 33.494L312.762 34.6282L311.572 35.1237L312.975 34.9108L313.885 33.85L314.373 35.1237L314.726 33.85L315.544 31.8349L315.658 32.7782L316.308 34.808L316.198 34.9952L316.334 35.432L316.429 35.3953L317.262 37.4288L317.758 38.9667L319.249 42.3106L319.403 42.9162L320.067 44.1936L320.122 44.8469L319.994 45.6581L320.996 48.0807L321.249 48.5725L321.319 48.2825L320.291 45.4672L320.423 45.2103L321.756 48.3376L321.995 48.701L322.226 49.6003L322.63 50.6133L323.408 51.7989L324.671 54.2105L326.018 56.3137L326.807 57.9214L327.428 58.5821L329.256 61.1478L329.95 62.3811L331.697 64.1172L331.675 64.4403L331.4 64.3889L331.048 64.0732L330.838 64.0145L330.849 64.231L331.925 64.9835L332.009 64.7082L332.314 64.9725L334.576 67.7768L336.257 70.258L336.382 70.6324L336.587 70.8967L336.569 71.1096L336.999 71.5721L337.377 72.1924L337.439 72.4567L337.204 73.088L337.226 73.2605L337.601 73.0697L337.744 73.1174L337.803 72.9889L337.571 72.3062L336.896 70.9187L337.046 70.7426L337.333 71.0068L338.206 72.3246L340.769 75.3564L340.879 75.6207L340.75 75.6023L340.618 75.7455L340.791 76.0061L341.037 76.8393L341.294 77.0229L341.54 76.9935L341.158 76.4025L341.242 76.1309L342.927 78.091L343.093 78.1974L343.474 78.8875L343.871 79.2472L344.282 79.9042L345.435 80.9944L348.794 85.5862L349.161 85.9973L350.259 86.5038L350.615 86.368L350.883 86.0157L351.129 85.8725L351.566 85.8652L352.061 85.5495L352.304 85.5532L352.718 85.9349L353.21 85.7147L354.224 86.2029L354.594 86.5369L354.506 86.8929L354.631 87.1719L354.392 87.8473L354.414 88.2694L355.879 90.8314L357.19 92.1198L357.535 92.5969L357.484 92.7584L357.19 92.931L357.252 93.0447L357.865 93.254L358.563 94.1899L361.738 98.1101L363.064 100.133L364.973 102.276L366.221 104.086L366.882 104.372L367.44 104.919L368.086 105.062L368.798 105.058L369.606 104.409L369.881 104.478L370.024 104.691L369.488 105.396L369.411 106.108L369.697 106.439L370.762 108.567L371.008 109.302L371.551 109.621L371.739 110.175L372.183 110.572L373.475 110.906L374.029 110.674L374.29 110.726L375.7 111.515L376.188 111.526L377.121 111.933L377.785 112.029L378.141 111.97L378.552 111.702L379.209 112.087L380.065 112.249L380.491 112.194L380.916 111.878L381.339 111.886L381.948 112.223L382.374 112.084L382.792 112.128L383.27 112.59L383.16 113.35L383.494 113.695L383.6 114.103L383.853 114.352L384.103 114.826L384.566 115.226L386.478 116.154L387.022 116.555L387.264 116.643L387.407 116.764L387.528 117.292L387.906 118.28L387.87 118.617L387.315 118.606L387.135 118.449L386.574 117.487L386.21 117.171L385.326 117.09L384.834 117.142L384.547 117.472L384.485 117.689L384.536 118.118L384.881 119.23L384.679 119.99L384.008 121.326L383.758 121.535L383.027 121.334L382.719 121.33L382.473 121.447L382.19 121.748L381.731 121.737L381.368 121.392L380.986 120.588L380.803 120.585L380.307 120.911L379.933 121.271L379.698 120.684L379.334 120.765L379.202 120.875L378.248 120.871L378.038 120.721L378.005 119.975L377.414 119.381L377.924 119.084L378.042 118.889L377.869 118.581L377.499 118.379L377.087 117.85L376.897 118.511L376.75 118.588L375.52 117.579L375.729 116.922L375.7 116.771L374.874 116.599L374.642 115.982L374.433 115.824L373.853 115.597L373.148 115.615L372.609 115.02L371.581 114.323L371.364 114.26L370.098 114.756L369.496 114.22L368.585 113.68L368.317 113.277L367.058 113.343L366.72 113.578L366.467 113.559L366.316 113.816L366.14 114.561L365.303 115.145L365.035 116.518L364.734 116.867L364.958 117.05L364.929 117.81L365.105 117.88L365.578 117.777L365.817 118.023L365.729 118.346L365.854 118.687L365.604 119.073L365.791 119.418L365.604 119.818L365.7 120.045L366.001 120.361L366.746 120.324L366.856 120.508L366.493 120.856L366.555 120.955L366.75 120.974L366.999 120.768L367.271 120.904L367.403 121.194L367.711 121.179L367.814 121.517L367.671 121.682L366.408 122.046L362.117 122.938L361.331 123.202L361.188 123.367L361.089 125.624L361.129 132.044L361.276 133.021L361.283 149.421L361.364 151.01L361.522 151.403L361.705 151.524L361.856 152.357L360.024 151.814L359.077 151.102L358.343 149.703L357.623 145.666L356.617 145.122L354.495 144.755L353.005 144.351L352.891 143.973L353.115 142.825L352.245 141.074L352.37 140.266L352.12 138.835L351.184 138.501L349.341 137.535L347.821 136.838L346.841 136.504L345.328 134.364L344.271 133.443L342.898 133.564L341.705 133.872L340.534 133.608L339.612 132.297L339.032 131.934L337.292 131.6L336.257 130.782L335.475 129.937L334.062 129.192L333.059 129.662L332.795 130.029L332.678 131.196L332.333 131.732L331.569 131.563L330.937 131.622L329.832 132.14L329.128 132.709L328.959 131.846L328.305 131.185L327.05 130.712L325.398 129.519L323.929 126.513L323.188 124.736L322.71 122.549L321.543 121.502L321.202 120.141L320.948 119.366L321.069 118.368L320.941 117.421L320.445 116.165L319.979 115.395L323.815 111.864L325.119 110.873L326.624 109.437L327.068 107.943L327.131 106.207L327.817 105.022L328.614 104.009L329.539 102.966L332.266 99.1855L333.603 97.688L333.059 96.2858L333.192 95.794L333.173 94.1863L332.656 92.9713L332.366 91.5178L332.325 89.9762L333.313 89.778L333.291 88.9961L333.628 88.2217L334.568 87.7738L334.994 87.1278L325.706 87.1902L314.032 87.1278L306.869 83.7216L302.09 81.7138L299.946 80.4988L290.827 75.6207L291.656 73.4771L292.06 72.6623L293.407 71.7336L294.186 70.8013L294.938 69.7001L295.522 68.7091L296.069 66.8922L296.836 65.6001L297.376 64.4806L297.258 62.4068L296.917 60.4871L295.889 59.1363L295.228 57.268L295.412 56.2439L296.711 54.3426L297.813 54.3536L298.602 53.8251L298.367 52.9808L298.899 51.5236L298.452 49.7324L297.534 47.6365L297.559 46.2344L298.455 44.1715L297.846 43.4044L297.618 42.7951L297.772 40.6258L298.294 39.5063L299.307 39.565L299.876 38.6584L300.632 37.7665L301.414 37.7261L302.273 37.5315L303.118 36.724L305.423 36.8085L307.343 36.7974L306.917 35.8321L306.396 35.3366L305.577 34.7016L304.41 33.6518L304.626 32.9874L304.733 32.2423L303.654 31.7394L304.366 31.1815L305.104 30.8512L305.999 30.7814L306.477 30.3813L306.869 30.341L307.523 30.6089L308.756 30.3703L309.347 30.0693L310.118 28.9241L310.28 28.19L309.623 26.2814L309.612 25.4702L309.832 24.1194L309.744 23.6276L309.48 23.1761L309.116 22.8274L309.381 21.7482L309.19 21.3995L308.198 20.2984L308.18 20.0268L308.257 19.8836L309.017 20.0488L309.729 20.2874L311.19 21.5977L312.376 22.9522L314.036 26.1382Z" fill="#4B69D1"/>
<path d="M231.754 52.7239L232.995 52.6064L233.806 53.7296L234.46 53.7333L234.915 54.082L235.073 54.4784L235.062 54.9445L235.282 55.3226L234.93 55.4804L233.322 55.374L232.224 55.4034L231.005 54.8234L229.405 54.1444L227.797 53.8948L227.653 52.4743L226.64 51.7622L225.748 51.5089L224.581 51.285L223.384 50.6831L222.536 49.7287L221.688 49.5819L221.747 50.2169L221.108 50.0884L219.815 49.0827L217.958 47.4567L218.909 47.5154L219.309 47.464L219.448 47.0786L220.55 47.196L220.979 47.5668L221.691 47.3135L221.864 46.6088L222.973 47.108L223.307 46.9281L223.567 47.2181L223.472 47.5815L223.49 48.2385L224.548 48.4037L225.664 49.0276L227.084 50.1141L227.741 51.0721L229.757 53.0762L230.792 53.1313L231.754 52.7239Z" fill="#96ADFB"/>
<path d="M294.395 177.14L293.991 177.181L293.653 177.03L293.528 176.784L293.712 176.465L293.716 176.142L295.089 176.212L295.136 176.326L294.659 176.916L294.395 177.14ZM313.114 161.783L312.868 161.893L312.74 161.779L312.486 160.45L312.828 160.278L313.07 160.395L313.367 161.078L313.294 161.548L313.114 161.783ZM312.894 159.291L312.578 159.738L312.303 159.702L312.145 159.474L312.211 158.457L312.119 155.998L311.392 153.917L311.734 153.858L312.09 153.946L312.321 154.581L312.317 154.857L312.787 155.947L312.662 156.688L312.703 157.125L313.272 158.931L313.187 159.155L312.894 159.291ZM224.188 91.1911L222.84 91.2572L222.484 91.0443L222.26 90.7176L222.312 90.5561L223.079 90.2882L223.112 90.079L222.969 89.8661L224.155 90.0239L224.081 90.8351L224.32 91.114L224.188 91.1911ZM212.525 87.1315L213.332 87.7592L213.461 87.9867L212.146 87.939L211.721 88.3244L211.431 88.207L211.24 87.7665L210.803 87.4692L210.806 87.2747L211.052 87.1315L211.621 87.1535L211.768 86.992L212.525 87.1315ZM216.776 86.8562L217.848 87.2563L218.578 87.3444L218.931 87.6564L219.21 87.6124L219.29 87.7922L219.092 87.9537L218.119 87.862L216.13 87.2049L215.674 87.2306L215.627 87.0838L216.001 86.926L216.776 86.8562ZM215.223 86.7902L215.043 86.9333L213.633 86.5773L213.358 86.3791L213.424 86.2029L215.223 86.7902ZM208.942 88.196L209.232 88.4602L209.896 88.5483L210.384 88.196L210.906 88.2327L211.016 88.6731L211.309 88.6107L211.401 89.0182L211.695 88.9888L212.187 88.3942L212.547 88.2363L212.855 88.24L214.547 89.2824L214.977 89.9688L215.829 90.8718L216.166 90.9746L217.091 90.8534L218.064 91.0113L218.358 90.8351L219.382 90.7837L220.109 91.1177L220.807 91.2719L221.372 91.7013L222.018 91.9362L222.209 92.1822L222.139 92.5566L222.231 92.997L222.422 93.2907L222.257 93.5953L221.816 93.7348L221.273 94.3625L221.152 94.8653L221.229 95.1737L221.904 95.8454L222.26 95.8344L222.385 96.1427L222.367 96.418L222.51 96.5501L222.818 96.5061L223.108 96.8511L222.995 96.9942L222.444 96.9245L221.706 97.6146L221.655 97.8238L221.783 98.1028L222.345 98.5652L222.796 98.7341L223.119 98.7047L223.252 98.5432L223.722 98.4992L224.048 98.3083L224.614 98.4441L225.036 98.3854L225.99 98.6386L226.02 98.7855L225.888 99.0754L225.106 99.3764L224.937 99.7949L224.206 99.8206L223.846 99.9123L223.733 100.055L223.531 100.668L223.299 100.94L222.077 101.267L221.992 101.428L222.183 101.803L221.57 102.849L221.401 103.399L221.174 103.528L220.509 103.44L220.344 103.601L220.102 103.535L219.837 104.196L220.058 104.864L220.054 105.238L219.922 105.543L219.481 105.767L218.674 105.532L218.064 104.974L217.418 104.691L217.176 104.445L216.574 104.537L216.148 104.875L215.638 105.631L215.517 106.167L215.594 106.574L216.467 106.927L216.761 107.195L216.805 107.433L216.427 108.061L215.854 108.443L214.716 108.74L214.375 108.931L213.883 109.558L212.921 109.922L211.934 111.093L211.317 112.627L211.276 113.357L210.388 116.088L210.124 116.687L209.114 117.017L208.997 117.373L209.074 117.762L208.975 117.872L208.67 117.498L208.527 117.076L208.174 116.83L207.381 116.661L206.772 116.022L206.548 115.534L206.39 113.49L206.118 113.148L205.41 112.638L202.506 109.445L202.128 108.193L201.875 107.705L201.522 107.36L201.239 106.563L200.303 105.44L201.217 104.211L202.249 103.315L203.068 101.513L202.807 99.6554L203.156 98.5028L203.743 97.5118L204.242 96.44L202.715 96.2271L201.096 93.3274L199.455 92.7584L198.119 92.5823L196.61 92.2409L195.858 91.6683L195.85 90.6075L196.963 89.5394L198.372 89.3742L199.397 89.0512L200.931 88.7355L201.32 88.3208L202.653 88.4346L203.494 88.2437L204.316 87.4178L204.9 85.5569L205.219 85.1127L205.12 85.2889L205.458 85.7L206.071 85.9826L207.488 87.249L208.314 87.4362L208.424 87.8913L208.648 88.1703L208.942 88.196ZM206.104 78.2635L206.445 78.3002L206.801 78.2084L207.627 78.5755L208.505 78.7627L208.747 78.9279L209.026 78.8802L209.169 79.093L209.037 79.3683L208.681 79.3977L208.116 79.1334L207.837 79.2949L205.939 78.9499L205.586 78.5058L205.487 78.5535L205.421 78.748L205.693 79.1738L206.016 79.339L206.423 79.361L206.599 79.6399L206.812 79.6253L206.992 79.416L207.22 79.5335L207.462 79.4858L207.851 79.5886L208.218 80.0804L208.413 80.1979L208.835 80.1208L209.276 79.8492L209.907 79.8565L209.936 80.0988L209.753 80.4218L209.411 80.5796L209.393 80.7264L208.086 81.266L207.73 81.2146L206.247 81.5229L205.127 81.4312L204.044 80.8843L203.773 80.6053L203.549 80.2603L203.189 78.9095L202.98 78.6159L203.178 78.2782L203.552 78.2965L204.599 77.8047L205.329 77.8781L206.104 78.2635ZM231.023 63.886L232.253 65.6772L234.599 67.3106L236.126 66.7821L237.063 66.2058L238.131 65.8571L238.858 66.114L239.577 67.028L240.447 67.9383L240.844 69.3257L240.267 70.7205L239.698 71.6051L239.14 72.7871L239.955 73.3376L239.812 74.2957L239.926 76.1786L239.937 77.3459L241.031 79.5629L241.45 80.2713L242.455 80.7301L242.701 82.1433L242.98 83.0279L245.451 83.0682L246.743 83.2224L247.83 84.3162L247.992 85.6266L247.643 86.8636L246.053 87.4582L244.959 88.4859L244.06 89.6752L242.966 89.767L241.828 89.7963L241.233 90.468L240.392 92.2703L239.533 92.5492L239.023 93.1989L238.931 94.4726L239.482 95.3682L241.266 95.6802L242.533 95.6251L243.568 95.6839L244.632 95.9738L244.761 96.9025L245.132 97.3797L245.881 97.721L246.483 98.1725L245.745 98.9984L245.704 99.9307L246.909 99.8976L247.481 101.513L248.472 101.487L248.935 102.236L247.657 103.374L245.965 103.293L245.488 103.601L245.29 105.682L245.862 107.341L245.697 109.019L246.038 109.94L247.69 111.717L247.727 113.049L248.076 114.29L249.034 115.45L249.526 115.648L250.826 116.037L253.021 115.978L254.302 115.732L255.481 115.574L255.822 116.558L256.534 117.153L257.599 115.96L258.436 114.859L259.126 113.824L258.539 112.422L259.064 111.541L260.697 111.772L261.898 111.614L264.112 111.533L265.312 110.652L266.964 111.687L268.924 112.374L270.084 112.363L271.032 112.293L272.551 113.079L274.769 112.3L276.27 112.451L276.85 112.752L277.21 113.567L276.953 115.773L277.768 117.021L278.58 117.296L279.956 116.709L281.494 117.344L281.307 119.785L281.428 121.198L282.666 121.693L283.613 123.173L284.854 123.797L286.234 124.839L286.355 125.448L286.891 126.513L287.963 126.27L288.62 127.904L289.982 129.137L291.285 128.891L291.73 128.161L292.284 127.595L293.411 127.841L293.635 129.064L294.461 130.818L295.415 131.828L296.212 132.4L296.972 132.444L297.805 132.8L297.067 134.408L297.078 135.572L297.288 137.957L299.189 139.536L301.546 140.74L303.371 141.052L304.946 139.147L307.292 140.795L308.595 142.979L309.428 144.902L310.203 146.257L311.524 146.664L313.213 147.442L314.373 149.039L317.685 150.408L318.61 151.102L320.104 150.933L321.253 150.393L321.932 149.784L322.45 148.65L322.475 147.192L323.503 146.15L324.076 144.612L323.977 144.021L323.547 143.019L322.068 143.037L321.084 142.619L320.35 141.984L320.401 141.558L321.216 140.417L321.367 138.89L321.271 138.449L321.881 137.546L322.71 136.974L323.368 136.32L324.406 134.136L325.416 133.138L326.062 132.041L327.042 130.723L328.302 131.196L328.951 131.857L329.12 132.72L329.825 132.151L330.93 131.633L331.562 131.574L332.325 131.743L332.67 131.204L332.788 130.036L333.052 129.669L334.054 129.2L335.468 129.945L336.25 130.789L337.285 131.607L339.025 131.941L339.605 132.308L340.526 133.615L341.694 133.879L342.891 133.575L344.26 133.454L345.321 134.379L346.833 136.515L347.814 136.849L349.33 137.546L351.173 138.512L352.113 138.846L352.362 140.277L352.237 141.085L353.107 142.839L352.884 143.988L353.001 144.366L354.488 144.77L356.61 145.137L357.619 145.68L358.339 149.721L359.073 151.116L360.02 151.832L361.852 152.375L361.702 151.542L361.823 151.623L363.879 150.522L364.327 150.474L364.741 150.595L365.575 152.115L366.008 152.68L369.668 154.981L370.758 156.174L373.365 156.839L374.628 157.727L374.899 158.039L375.399 159.61L376.794 160.836L376.834 161.588L376.713 162.003L374.598 163.13L374.106 164.095L373.391 164.998L372.939 165.266L370.45 165.773L370.083 165.934L369.514 166.562L369.007 166.745L367.135 167.013L366.628 167.197L366.034 167.575L365.208 168.507L365.057 169.062L365.189 169.399L366.144 170.339L366.136 170.673L365.934 171.058L365.597 171.304L364.33 171.862L364.231 172.695L363.027 172.978L362.63 173.275L362.865 173.859L362.84 174.127L362.605 174.454L362.601 174.681L363.567 175.823L364.044 177.005L365.138 177.816L366.085 178.304L366.298 178.568L366.459 179.39L366.977 179.941L367.161 180.649L367.752 181.222L368.49 182.275L368.86 182.999L368.809 183.516L368.343 184.045L368.379 184.254L368.725 184.636L368.688 185.88L369.106 186.823L369.117 187.267L368.886 187.844L368.317 188.361L368.122 188.681L368.442 190.38L368.471 191.503L368.152 192.949L367.48 194.366L366.691 195.471L366.144 195.897L365.325 196.297L363.802 196.701L363.097 196.708L362.579 196.554L361.834 196.517L360.329 198.066L358.691 200.026L357.278 201.285L355.578 202.229L354.014 202.717L353.533 202.955L353.298 203.201L353.207 203.612L353.258 204.134L353.739 204.912L355.038 205.312L355.365 205.525L356.977 206.82L357.48 207.599L357.748 207.624L358.75 207.272L360.402 207.72L361.162 208.127L361.301 208.421L361.467 209.544L361.727 210.109L361.603 212.242L362.708 212.884L363.258 213.453L363.394 214.947L363.207 216.085L364.429 219.26L364.492 221.374L364.099 223.374L364.036 224.747L363.959 224.648L363.493 224.608L363.236 224.457L362.44 223.103L362.575 222.655L362.553 222.027L362.652 221.917L362.99 221.873L363.221 221.653L363.394 221.124L363.453 220.53L363.295 219.48L362.649 218.614L362.498 218.063L362.058 217.538L361.918 217.197L361.79 216.257L360.876 214.209L358.376 210.535L357.061 209.25L355.732 208.711L352.054 205.899L348.555 203.899L347.604 202.944L346.918 202.482L346.4 201.715L346.305 200.775L346.397 200.147L346.716 199.509L347.88 198.529L348.647 198.073L349.025 197.644L349.19 196.484L349.715 195.93L349.914 195.577L349.888 195.269L349.245 194.029L348.57 193.03L346.621 190.798L346.272 189.547L345.927 189.026L346.121 188.996L346.455 189.213L346.687 189.91L346.973 190.141L347.215 190.097L347.124 189.804L346.918 189.653L346.94 189.33L347.168 189.191L347.972 189.352L348.794 188.493L349.363 188.6L349.367 188.446L349.088 188.288L348.651 188.247L347.509 188.857L347.171 188.849L346.775 188.504L346.459 187.965L345.978 187.796L345.706 187.565L344.003 185.256L343.9 184.72L344.469 183.634L344.792 183.769L344.958 184.434L345.196 184.632L345.629 184.753L345.673 184.981L345.358 185.443L345.659 185.788L345.277 186.298L345.589 186.871L346.584 186.291L346.962 185.895L347.347 185.917L347.619 186.1L347.869 185.748L347.839 185.553L347.392 185.337L347.05 185.491L346.907 185.406L346.742 184.775L345.38 183.072L344.723 182.771L344.359 182.312L344.032 182.532L343.827 182.32L343.618 182.301L343.485 182.43L343.5 182.525L343.981 182.694L344.091 182.907L344.117 183.311L343.966 183.615L343.724 183.725L343.482 183.703L343.243 183.49L342.549 183.446L342.134 183.101L341.793 183.241L341.488 183.171L341.378 183.057L341.529 182.771L341.466 182.591L341.195 182.474L340.211 182.441L339.84 183.292L339.616 183.222L339.128 182.422L338.775 181.336L338.566 181.237L337.997 181.435L336.984 181.094L336.595 181.134L336.07 181.512L335.152 180.363L334.862 180.213L334.377 180.158L334.139 180.04L333.999 179.761L333.581 179.607L333.419 179.46L333.65 179.174L333.434 178.524L333.636 178.043L333.661 177.559L334.069 177.243L334.175 176.568L333.727 176.333L333.368 176.682L333.14 176.678L332.982 176.465L332.578 176.392L332.134 175.834L331.83 175.764L331.664 175.973L331.051 175.786L330.357 175.727L330.247 175.661L330.192 175.111L330.049 175.011L329.77 175.184L329.748 175.474L329.407 175.694L329.337 176.098L329.19 176.193L328.882 176.171L328.838 175.878L328.68 175.731L328.434 175.856L328.191 175.819L327.531 176.711L326.892 177.122L326.356 177.243L325.97 177.155L325.849 176.718L324.799 176.7L324.238 176.513L323.819 176.524L323.716 176.733L323.503 176.858L323.07 176.784L322.655 177.408L322.564 178.117L322.718 178.506L322.975 178.623L323.287 178.322L323.591 178.359L323.863 178.572L323.907 178.766L323.606 179.328L323.797 179.526L324.043 179.321L324.318 179.31L324.748 179.625L325.273 180.216L325.816 180.598L326.348 181.593L326.103 182.72L326.147 183.123L326.444 183.347L326.591 183.663L326.91 183.99L327.707 184.632L328.5 185.55L329.105 186.078L329.586 186.346L330.038 186.339L330.578 186.882L331.532 186.735L333.441 187.447L334.396 188.383L334.979 189.169L335.541 189.356L335.956 189.686L336.264 189.514L336.334 189.128L336.525 189.356L336.617 189.697L336.228 192.549L336.448 192.924L337.685 194.319L337.601 194.623L337.351 194.957L336.628 195.607L336.686 195.897L337.428 196.991L337.505 197.299L336.929 198.822L337.167 199.909L336.899 200.5L336.147 200.988L334.542 200.426L332.685 199.538L329.972 198.62L327.953 197.699L326.785 196.983L326.033 196.712L322.699 196.044L321.183 195.952L320.309 195.97L318.771 196.22L318.672 196.315L318.224 196.146L317.494 196.359L317.042 196.286L315.302 195.016L315.118 194.352L314.582 193.647L313.676 192.81L312.189 191.947L309.472 188.915L307.2 186.57L306.444 186.346L306.352 186.104L306.043 186.243L305.779 186.515L305.544 186.141L305.331 185.263L304.714 184.335L304.736 184.078L305.217 183.197L305.372 182.584L305.75 182.088L306.253 181.901L306.385 181.677L306.554 180.194L306.723 179.794L307.493 179.145L308.209 178.899L310.328 178.77L310.654 178.645L310.9 178.326L311.135 177.669L311.051 176.861L311.286 176.171L311.664 175.724L312.152 175.536L312.416 175.184L312.244 174.956L311.987 174.92L311.789 175.144L311.642 175.158L311.491 174.395L311.499 173.943L311.616 173.653L311.781 173.496L312.589 173.459L313.224 173.195L313.639 172.504L314.006 172.736L314.024 172.541L313.646 171.888L313.745 171.811L314.751 171.682L315.449 171.469L316.011 171.671L316.569 171.242L316.414 170.787L316.286 170.702L315.992 170.86L315.937 170.229L315.823 170.225L315.691 170.467L315.537 171.029L315.21 171.154L314.094 171.135L313.371 170.996L313.129 171.961L312.945 172.314L312.358 172.71L312.035 172.673L311.113 171.69L312.872 169.81L313.231 169.638L313.496 169.285L313.918 169.146L314.311 168.812L314.575 168.364L315.324 168.151L316.19 168.584L316.69 168.625L317.152 168.926L317.365 168.801L317.116 168.346L316.444 167.832L316.319 167.476L316.469 167.237L316.837 167.535L318.114 167.505L318.522 167.384L319.149 167.59L319.608 167.34L319.652 167.535L319.186 168.482L318.925 169.513L318.562 169.976L318.239 170.1L317.674 170.108L317.266 170.361L317.112 170.812L317.138 171.183L316.972 171.488L316.602 171.418L316.565 171.565L316.693 171.726L316.983 171.892L317.325 171.785L317.567 171.822L317.798 171.565L317.743 171.062L317.894 170.79L318.445 170.655L319.05 170.262L319.505 169.139L319.483 168.526L319.7 168.059L319.975 167.968L320.309 168.217L320.489 168.188L321.275 167.634L322.571 167.447L322.769 167.241L322.644 166.914L322.354 166.764L322.237 166.988L321.991 167.16H321.055L320.335 167.648L320.144 167.549L320.115 167.259L320.511 166.797L320.287 166.613L319.847 166.834L319.509 166.764L319.036 167.16L318.232 166.903L317.42 167.083L316.906 166.881L316.558 166.47L316.268 166.433L315.974 166.606L315.886 167.076L316.069 167.74L316.003 167.883L315.875 167.88L315.555 167.615L315.357 166.9L315.034 166.83L314.153 166.265L312.78 166.276L313.25 165.233L313.309 164.462L313.804 164.822L314.509 165.123L316.381 165.413L316.848 165.648L317.086 165.942L317.729 166.18L317.549 165.321L317.116 165.039L316.976 164.745L317.273 164.283L317.534 164.238L318.081 164.459L318.518 164.433L318.588 164.11L318.397 163.897L317.798 163.824L317.295 163.897L316.675 164.242L316.392 164.837L316.132 165.061L314.946 164.312L314.733 164.374L314.091 164.154L313.834 163.956L313.709 163.548L313.76 163.405L314.013 163.732L314.689 163.904L315.118 164.268L315.456 164.29L315.636 164.114L315.621 163.919L314.351 163.559L314.19 163.442L314.068 162.987L313.925 162.888L313.654 162.803L312.963 163.343L312.703 163.372L312.545 163.24L312.53 163.031L312.714 162.726L313.584 161.981L313.786 161.563L313.709 161.24L313.903 160.094L313.83 159.496L313.452 158.777L313.474 158.534L313.246 157.632L312.945 157.107L312.934 156.751L313.088 156.266L313.334 156.156L314.19 156.185L314.193 156.057L313.261 155.734L313.03 155.051L313.088 154.501L313.334 154.328L313.338 154.2L312.986 154.13L312.798 153.704L312.314 153.664L312.042 153.532L311.44 152.713L310.878 152.397L310.581 152.717L310.291 152.728L309.85 151.814L308.922 151.215L308.991 150.94L308.9 150.679L308.448 150.525L308.055 149.824L306.715 148.617L306.565 148.029L305.79 147.512L305.434 146.91L304.982 146.488L304.685 146.367L304.017 146.447L303.705 146.649L303.532 147.071L303.371 147.068L303.018 146.803L303.349 146.356L303.147 145.721L303.099 144.634L302.894 144.26L302.045 143.5L300.617 142.667L298.235 141.676L297.379 141.58L297.284 141.452L297.471 140.887L297.233 140.56L296.799 140.244L296.15 139.327L294.259 137.954L293.62 137.33L293.675 136.941L293.451 136.776L293.224 136.805L293.025 137.029L291.663 136.038L291.59 135.601L291.429 135.63L291.296 135.887L288.018 134.074L284.732 132.665L284.494 132.305L284.809 131.758L284.619 131.593L284.387 131.769L284.233 132.415L283.972 132.411L283.488 132.228L282.475 131.596L281.733 131.391L280.687 130.84L278.715 130.374L278.407 130.451L277.867 130.8L277.669 129.937L277.493 129.838L277.298 129.934L277.082 130.257L276.678 130.202L276.369 130.345L276.087 129.691L275.654 129.247L275.25 129.045L274.813 129.005L274.471 129.13L274.181 129.108L274.596 128.531L274.985 128.634L275.103 128.344L274.743 127.287L274.974 126.887L274.483 126.234L273.598 125.768L272.974 125.111L272.577 124.523L272.096 124.193L270.646 123.701L270.103 123.143L269.567 122.082L269.2 121.719L268.957 121.635L268.807 121.877L268.998 122.284L270.275 123.808L270.852 124.204L271.513 124.424L272.049 124.446L272.243 124.564L272.335 124.905L272.217 125.067L271.814 125.078L271.021 124.839L270.892 124.659L269.765 124.175L268.932 123.58L268.392 122.695L267.551 122.666L266.843 122.306L266.402 122.387L266.641 122.659L266.85 122.743L267.97 122.938L268.194 123.103L268.19 123.297L267.996 123.36L266.762 122.989L266.193 122.982L266.032 122.835L264.996 122.758L264.835 122.82L264.207 122.391L263.932 122.321L263.708 122.123L263.855 121.947L263.829 121.557L263.653 121.491L263.421 121.781L262.966 121.807L262.915 121.921L263.025 122.134L262.926 122.181L259.144 121.304L258.792 120.992L258.594 121.183L257.786 121.077L257.478 120.941L257.353 120.467L257.096 120.368L256.817 120.64L256.395 120.618L255.558 120.251L255.069 120.229L254.023 119.81L253.344 119.704L252.933 119.752L252.401 119.55L252.283 119.792L249.276 120.302L248.575 119.484L248.417 119.157L248.795 118.709L248.638 118.382L247.889 118.647L247.393 118.203L247.217 118.166L247.25 118.412L247.529 118.698L247.434 118.786L246.824 118.243L246.714 117.997L246.42 117.993L245.569 117.252L243.861 116.257L243.619 116.059L243.061 115.16L243.149 114.657L242.701 114.18L242.61 113.838L242.371 113.493L242.209 113.475L241.791 113.112L241.383 113.317L241.16 113.233L240.565 112.675L240.455 112.414L240.8 112.11L240.899 111.834L240.869 111.574L240.502 111.163L240.066 110.979L239.317 111.181L239.188 111.034L239.159 110.806L239.651 110.293L239.559 109.885L239.757 109.562L239.709 109.349L239.262 109.004L239.419 107.951L239.717 107.613L239.963 107.536L240.161 107.231L240.212 106.857L240.528 106.229L241.332 105.381L241.688 105.304L241.886 104.948L242.147 104.757L242.566 103.612L242.198 101.839L241.89 101.641L240.778 99.8279L239.753 98.679L239.563 98.3377L238.905 97.6146L238.116 97.2328L237.698 96.9025L237.569 96.6566L237.621 96.5281L237.83 96.5611L237.962 96.451L237.518 95.7793L235.605 94.245L235.59 94.0028L235.932 93.7972L236.361 93.3164L236.842 92.5419L236.813 92.3143L235.943 91.6536L235.157 90.8167L234.889 90.101L235.01 89.3559L234.867 89.0622L234.625 88.8163L234.236 88.6658L233.245 88.6364L232.338 88.3832L231.347 88.519L230.326 88.4272L229.753 88.6474H228.34L227.576 88.7833L227.334 88.7172L227.191 88.4235L227.308 88.229L227.749 88.0235L229.133 87.7482L228.663 87.6454L228.241 87.6894L227.092 87.271L226.368 86.6947L224.401 85.4871L223.806 85.0099L222.646 84.2318L222.29 84.2098L222.128 83.9969L222.165 83.6739L221.497 83.828L220.568 82.4222L220.164 82.2387L219.856 82.3158L218.868 82.0111L218.755 81.8459L218.887 81.6844L219.246 81.5413L219.569 81.545L219.346 81.1852L219.221 80.598L218.949 80.2199L218.222 79.8528L217.477 79.7464L216.879 79.4638L215.66 78.0873L215.142 77.6432L214.077 77.1623L213.398 76.7182L213.123 76.6815L212.693 77.1807L212.499 77.2431L212.073 77.0155L211.834 74.4425L213.185 74.4058L214.812 75.294L218.505 76.7623L220.028 77.6762L220.957 77.6505L221.846 76.0575L221.578 74.6664L223.105 73.2679L224.533 72.9119L224.147 70.3755L225.37 67.1198L225.473 66.2058L225.851 64.5834L226.993 63.0234L228.244 62.4398L229.841 62.906L231.023 63.886Z" fill="#96ADFB"/>
<path d="M290.827 75.6207L291.436 77.1513L292.244 80.6456L293.022 81.3027L294.472 81.8569L295.573 82.8626L296.087 83.9308L296.139 85.0943L296.341 86.3166L296.833 87.3407L296.51 87.9867L295.254 88.3831L294.74 88.1629L294.101 87.9684L293.507 88.618L292.783 89.231L291.524 89.4769L290.485 89.2751L287.456 89.6752L286.976 89.9394L286.898 91.0443L286.017 92.0867L284.982 92.8135L284.883 93.8522L286.039 93.6944L286.737 93.7164L287.086 94.1092L287.078 94.6818L286.777 95.3241L286.458 95.9481L286.087 96.3812L285.092 97.8715L284.898 98.4881L284.167 98.8882L282.801 99.9233L281.487 100.573L281.069 100.668L281.179 101.637L280.859 102.305L281.608 102.687L282.75 102.761L283.965 102.474L284.854 102.427L286.722 101.296L287.244 101.072L287.901 102.79L288.738 104.078L290.507 104.856L290.559 105.936L290.47 106.637L290.735 107.029L291.476 107.096L292.225 107.58L292.449 108.061L292.813 108.244L293.44 107.929L294.501 108.978L295.056 109.261L295.819 109.368L296.172 109.166L297.361 109.368L297.67 109.907L297.662 111.243L298.048 112.227L298.951 112.899L300.012 113.126L300.805 113.504L301.653 113.736L302.662 114.147L303.316 114.066L303.103 114.98L303.408 116.052L303.922 116.378L304.957 116.411L305.273 117.186L306.102 117.395L307.552 117.039L308.426 117.461L309.549 116.731L309.953 115.956L310.471 115.519L311.227 115.413L312.101 115.729L312.931 116.701L313.657 117.039L315.394 118.114L316.712 118.437L317.696 118.834L319.983 120.783L321.543 121.502L322.711 122.548L323.188 124.736L323.929 126.513L325.398 129.519L327.05 130.712L326.07 132.029L325.423 133.127L324.414 134.125L323.375 136.309L322.714 136.963L321.884 137.535L321.275 138.438L321.371 138.882L321.224 140.409L320.409 141.551L320.357 141.977L321.092 142.612L322.072 143.03L323.551 143.008L323.981 144.014L324.08 144.601L323.507 146.139L322.479 147.181L322.454 148.642L321.936 149.777L321.253 150.386L320.108 150.925L318.614 151.091L317.685 150.397L314.377 149.028L313.213 147.431L311.525 146.653L310.203 146.245L309.428 144.891L308.599 142.968L307.295 140.784L304.949 139.136L303.371 141.037L301.546 140.725L299.193 139.521L297.291 137.943L297.082 135.561L297.071 134.397L297.809 132.789L296.976 132.433L296.216 132.389L295.419 131.82L294.465 130.807L293.635 129.053L293.411 127.834L292.288 127.588L291.73 128.153L291.285 128.884L289.982 129.13L288.62 127.896L287.963 126.267L286.895 126.505L286.359 125.441L286.238 124.832L284.857 123.789L283.616 123.169L282.669 121.69L281.432 121.194L281.307 119.781L281.498 117.34L279.96 116.705L278.583 117.292L277.772 117.017L276.957 115.769L277.218 113.563L276.858 112.744L276.278 112.443L274.776 112.293L272.559 113.071L271.035 112.289L270.088 112.355L268.928 112.366L266.964 111.68L265.312 110.645L264.112 111.522L261.894 111.603L260.694 111.764L259.064 111.533L258.539 112.414L259.123 113.816L258.432 114.851L257.595 115.953L256.531 117.145L255.819 116.551L255.473 115.567L254.295 115.725L253.014 115.971L250.818 116.03L249.519 115.641L249.031 115.442L248.069 114.282L247.72 113.045L247.683 111.713L246.031 109.937L245.69 109.015L245.859 107.338L245.286 105.679L245.484 103.598L245.962 103.289L247.654 103.37L248.931 102.236L248.469 101.483L247.478 101.513L246.905 99.8939L245.705 99.927L245.741 98.9946L246.483 98.1688L247.393 98.1578L248.388 96.6272L248.564 96.0509L249.361 95.0121L250.326 94.7332L251.435 93.621L252.015 93.2025L253.017 92.7327L253.407 92.3179L254.405 91.6793L255.378 91.7343L258.212 91.1507L258.253 91.0443L259.982 91.059L260.94 91.3085L262.096 92.017L263.807 91.9509L265.521 91.3966L268.304 91.1727L269.494 90.7139L270.51 89.9248L271.021 89.3375L271.744 88.7061L272.787 88.2326L273.613 88.273L274.42 88.4822L274.89 88.6841L275.228 88.7575L276.116 88.8419L277.394 88.4015L278.451 88.5446L278.774 88.7465L280.096 88.3501L280.959 88.2216L281.373 87.9977L282.431 88.0124L283.495 87.5793L284.619 86.9112L285.518 85.8725L285.893 84.8227L286.076 83.7583L285.199 82.4919L284.802 81.7798L284.978 81.332L285.026 80.7154L285.327 80.1134L286.572 80.0363L287.409 79.8455L288.003 79.0893L288.11 76.6925L288.066 75.7602L288.679 74.96L292.06 72.6622L291.656 73.4771L290.827 75.6207Z" fill="#96ADFB"/>
<path d="M294.754 71.1462L306.743 72.4802L316.955 74.7036L328.944 81.3735L340.045 85.3755L348.481 88.4881L353.81 86.7095" stroke="#FFFAFA" stroke-width="2" stroke-linejoin="round" stroke-dasharray="2 3"/>
<path d="M294.876 68.856C294.921 68.856 294.951 68.8418 294.982 68.8135C295.087 68.7141 297.663 66.245 297.663 63.9888C297.663 62.5414 296.413 61.3636 294.876 61.3636C293.34 61.3636 292.09 62.5414 292.09 63.9888C292.09 66.245 294.65 68.7141 294.771 68.8135C294.801 68.8418 294.831 68.856 294.876 68.856ZM293.475 63.9888C293.475 63.2509 294.108 62.6549 294.891 62.6549C295.674 62.6549 296.307 63.2509 296.307 63.9888C296.307 64.7267 295.674 65.3227 294.891 65.3227C294.093 65.3085 293.475 64.7125 293.475 63.9888Z" fill="#FFFCFC"/>
<path d="M349.048 86.6426C349.093 86.6426 349.123 86.6284 349.153 86.6C349.259 86.5007 351.834 84.0316 351.834 81.7754C351.834 80.328 350.584 79.1502 349.048 79.1502C347.511 79.1502 346.261 80.328 346.261 81.7754C346.261 84.0316 348.822 86.5007 348.942 86.6C348.972 86.6284 349.003 86.6426 349.048 86.6426ZM347.647 81.7754C347.647 81.0375 348.28 80.4415 349.063 80.4415C349.846 80.4415 350.479 81.0375 350.479 81.7754C350.479 82.5133 349.846 83.1092 349.063 83.1092C348.265 83.0951 347.647 82.4991 347.647 81.7754Z" fill="#FFFCFC"/>
<path d="M349.936 85.7533C349.981 85.7533 350.011 85.7391 350.041 85.7107C350.147 85.6113 352.722 83.1423 352.722 80.886C352.722 79.4386 351.472 78.2609 349.936 78.2609C348.399 78.2609 347.149 79.4386 347.149 80.886C347.149 83.1423 349.71 85.6113 349.83 85.7107C349.861 85.7391 349.891 85.7533 349.936 85.7533ZM348.535 80.886C348.535 80.1482 349.168 79.5522 349.951 79.5522C350.734 79.5522 351.367 80.1482 351.367 80.886C351.367 81.6239 350.734 82.2199 349.951 82.2199C349.153 82.2057 348.535 81.6097 348.535 80.886Z" fill="#4B69D1"/>
<path d="M288.762 213.979H302.467H313.583H351.28H359.775H377.329V211.821C377.329 208.469 374.608 205.747 371.256 205.747H365.151V204.386C365.151 200.469 361.965 197.282 358.049 197.282H353.005C349.09 197.282 345.904 200.469 345.904 204.386V205.747H315.276C314.148 203.39 311.758 201.763 308.971 201.763H307.079C304.292 201.763 301.903 203.39 300.775 205.747H294.138V204.386C294.138 200.469 290.952 197.282 287.037 197.282H281.993C278.077 197.282 274.892 200.469 274.892 204.386V205.747H196.877V205.249C196.877 202.095 194.322 199.539 191.17 199.539H169.202C169.202 197.215 167.311 195.357 165.021 195.357H121.053C118.73 195.357 116.872 197.249 116.872 199.539V205.747H69.8843V203.589C69.8843 200.236 67.1633 197.481 63.7786 197.481H58.2701C54.9186 197.481 52.1644 200.203 52.1644 203.589H31.1925C29.9979 203.589 29.0355 204.552 29.0355 205.747H17.0563C13.6716 205.747 10.9506 208.469 10.9506 211.855V213.979H280.3H288.762Z" fill="#59A173"/>
<path d="M364.852 207.606H357.85C355.229 207.606 353.105 209.73 353.105 212.353V213.979H369.63V212.353C369.63 209.73 367.473 207.606 364.852 207.606Z" fill="#00874B"/>
<path d="M342.586 206.61H334.489C331.469 206.61 328.98 209.066 328.98 212.12V214.012H348.094V212.12C348.094 209.066 345.639 206.61 342.586 206.61Z" fill="#00874B"/>
<path d="M270.279 206.61H262.182C259.163 206.61 256.674 209.066 256.674 212.12V214.012H275.787V212.12C275.787 209.066 273.332 206.61 270.279 206.61Z" fill="#00874B"/>
<path d="M331.237 209H325.762C323.704 209 322.045 210.66 322.045 212.718V213.979H334.987V212.718C334.954 210.66 333.294 209 331.237 209Z" fill="#75AF88"/>
<path d="M60.1616 204.518H52.0648C49.0452 204.518 46.5564 206.975 46.5564 210.029V214.012H65.6701V210.029C65.6369 206.975 63.1813 204.518 60.1616 204.518Z" fill="#00874B"/>
<path d="M128.32 203.689H117.005C112.757 203.689 109.339 207.141 109.339 211.357V213.979H136.019V211.357C135.986 207.108 132.535 203.689 128.32 203.689Z" fill="#00874B"/>
<path d="M162.167 203.689H156.792C152.544 203.689 149.126 207.141 149.126 211.357V213.979H169.866V211.357C169.833 207.108 166.382 203.689 162.167 203.689Z" fill="#00874B"/>
<path d="M25.3522 208.303H20.4742C18.6491 208.303 17.1559 209.796 17.1559 211.622V214.012H28.6374V211.622C28.6374 209.796 27.1773 208.303 25.3522 208.303Z" fill="#00874B"/>
<path d="M51.036 206.909H45.5608C43.5034 206.909 41.8442 208.568 41.8442 210.626V213.979H54.7858V210.626C54.7526 208.568 53.0934 206.909 51.036 206.909Z" fill="#75AF88"/>
<path d="M153.042 208.336H146.837C144.514 208.336 142.622 210.228 142.622 212.552V213.979H157.223V212.552C157.256 210.228 155.365 208.336 153.042 208.336Z" fill="#75AF88"/>
<path d="M213.17 209H207.695C205.638 209 203.979 210.66 203.979 212.718V213.979H216.92V212.718C216.887 210.66 215.228 209 213.17 209Z" fill="#75AF88"/>
<path d="M107.315 210.925C116.424 210.925 123.807 203.539 123.807 194.427C123.807 185.315 116.424 177.929 107.315 177.929C98.2069 177.929 90.8231 185.315 90.8231 194.427C90.8231 203.539 98.2069 210.925 107.315 210.925Z" fill="#D8DCEC"/>
<path d="M107.315 209.431C115.599 209.431 122.314 202.714 122.314 194.427C122.314 186.14 115.599 179.423 107.315 179.423C99.0315 179.423 92.3163 186.14 92.3163 194.427C92.3163 202.714 99.0315 209.431 107.315 209.431Z" fill="#DEB408"/>
<path d="M107.315 207.174C114.353 207.174 120.058 201.467 120.058 194.427C120.058 187.387 114.353 181.68 107.315 181.68C100.278 181.68 94.5728 187.387 94.5728 194.427C94.5728 201.467 100.278 207.174 107.315 207.174Z" fill="#FFD54C"/>
<path d="M107.315 186.46C107.902 186.46 108.377 185.985 108.377 185.398C108.377 184.811 107.902 184.336 107.315 184.336C106.729 184.336 106.253 184.811 106.253 185.398C106.253 185.985 106.729 186.46 107.315 186.46Z" fill="#DEB408"/>
<path d="M100.431 190.44C100.724 189.931 100.55 189.282 100.043 188.988C99.5347 188.695 98.8853 188.869 98.5921 189.377C98.2989 189.885 98.4729 190.535 98.9807 190.828C99.4886 191.122 100.138 190.948 100.431 190.44Z" fill="#DEB408"/>
<path d="M100.041 199.821C100.548 199.528 100.722 198.878 100.429 198.37C100.136 197.862 99.4865 197.688 98.9787 197.981C98.4708 198.274 98.2968 198.924 98.59 199.432C98.8832 199.94 99.5327 200.114 100.041 199.821Z" fill="#DEB408"/>
<path d="M107.315 204.485C107.902 204.485 108.377 204.01 108.377 203.423C108.377 202.836 107.902 202.361 107.315 202.361C106.729 202.361 106.253 202.836 106.253 203.423C106.253 204.01 106.729 204.485 107.315 204.485Z" fill="#DEB408"/>
<path d="M116.017 199.436C116.31 198.928 116.136 198.278 115.628 197.985C115.12 197.692 114.471 197.866 114.178 198.374C113.885 198.882 114.059 199.531 114.566 199.825C115.074 200.118 115.724 199.944 116.017 199.436Z" fill="#DEB408"/>
<path d="M115.64 190.822C116.148 190.528 116.322 189.879 116.029 189.37C115.736 188.862 115.086 188.688 114.578 188.982C114.071 189.275 113.897 189.925 114.19 190.433C114.483 190.941 115.132 191.115 115.64 190.822Z" fill="#DEB408"/>
<path d="M89.0644 194.427C89.0644 198.576 90.3918 202.394 92.615 205.547H41.6785V190.311C41.6785 186.427 44.8309 183.307 48.6802 183.307H51.9653V173.945H71.4108V183.307H92.615C90.3918 186.427 89.0644 190.244 89.0644 194.427Z" fill="#F3B73C"/>
<path d="M86.4428 189.913C85.2814 189.913 84.3191 190.875 84.3191 192.037V196.784C84.3191 197.946 85.2814 198.908 86.4428 198.908H123.774L129.515 194.958V189.913H86.4428ZM108.875 196.718H105.722C104.826 196.718 104.13 195.987 104.13 195.124V193.697C104.13 192.801 104.86 192.103 105.722 192.103H108.875C109.771 192.103 110.468 192.834 110.468 193.697V195.091C110.501 195.987 109.771 196.718 108.875 196.718Z" fill="#D0942A"/>
<path d="M88.1352 192.867C88.5201 192.867 88.8321 192.555 88.8321 192.17C88.8321 191.785 88.5201 191.473 88.1352 191.473C87.7503 191.473 87.4384 191.785 87.4384 192.17C87.4384 192.555 87.7503 192.867 88.1352 192.867Z" fill="#44515C"/>
<path d="M88.1352 197.348C88.5201 197.348 88.8321 197.036 88.8321 196.651C88.8321 196.266 88.5201 195.954 88.1352 195.954C87.7503 195.954 87.4384 196.266 87.4384 196.651C87.4384 197.036 87.7503 197.348 88.1352 197.348Z" fill="#44515C"/>
<path d="M97.2274 192.867C97.6122 192.867 97.9242 192.555 97.9242 192.17C97.9242 191.785 97.6122 191.473 97.2274 191.473C96.8425 191.473 96.5305 191.785 96.5305 192.17C96.5305 192.555 96.8425 192.867 97.2274 192.867Z" fill="#44515C"/>
<path d="M97.2274 197.348C97.6122 197.348 97.9242 197.036 97.9242 196.651C97.9242 196.266 97.6122 195.954 97.2274 195.954C96.8425 195.954 96.5305 196.266 96.5305 196.651C96.5305 197.036 96.8425 197.348 97.2274 197.348Z" fill="#44515C"/>
<path d="M114.018 192.867C114.403 192.867 114.715 192.555 114.715 192.17C114.715 191.785 114.403 191.473 114.018 191.473C113.633 191.473 113.321 191.785 113.321 192.17C113.321 192.555 113.633 192.867 114.018 192.867Z" fill="#44515C"/>
<path d="M114.018 197.348C114.403 197.348 114.715 197.036 114.715 196.651C114.715 196.266 114.403 195.954 114.018 195.954C113.633 195.954 113.321 196.266 113.321 196.651C113.321 197.036 113.633 197.348 114.018 197.348Z" fill="#44515C"/>
<path d="M123.11 192.867C123.495 192.867 123.807 192.555 123.807 192.17C123.807 191.785 123.495 191.473 123.11 191.473C122.726 191.473 122.414 191.785 122.414 192.17C122.414 192.555 122.726 192.867 123.11 192.867Z" fill="#44515C"/>
<path d="M123.11 197.348C123.495 197.348 123.807 197.036 123.807 196.651C123.807 196.266 123.495 195.954 123.11 195.954C122.726 195.954 122.414 196.266 122.414 196.651C122.414 197.036 122.726 197.348 123.11 197.348Z" fill="#44515C"/>
<path d="M72.3731 183.273C72.2736 185.132 72.2072 186.46 72.2072 186.46H54.2218C48.8461 186.46 44.499 190.809 44.499 196.186V205.514H41.6453V190.278C41.6453 186.394 44.7977 183.273 48.647 183.273H51.9321V173.912H71.3776V183.273H72.3731Z" fill="#FFC63E"/>
<path d="M44.5322 206.012H40.9815L38.2605 203.423V199.738H44.5322V206.012Z" fill="#D0942A"/>
<path d="M98.256 178.062V167.207C98.256 159.871 92.3162 153.896 84.9495 153.896H66.8977V173.912L72.373 186.925H90.5907C92.1503 183.207 94.8713 180.12 98.256 178.062Z" fill="#333E48"/>
<path d="M84.9828 156.518H69.5525V173.348L69.7848 173.879H73.4681C77.2842 173.879 80.4035 177 80.4035 180.817V184.269H88.9316C90.5244 181.248 92.8473 178.593 95.6347 176.601V167.174C95.6347 161.298 90.8563 156.518 84.9828 156.518Z" fill="#6581B8"/>
<path d="M57.1087 210.892C63.2665 210.892 68.2584 205.898 68.2584 199.738C68.2584 193.578 63.2665 188.585 57.1087 188.585C50.951 188.585 45.9591 193.578 45.9591 199.738C45.9591 205.898 50.951 210.892 57.1087 210.892Z" fill="#44515C"/>
<path d="M57.1087 205.548C60.3159 205.548 62.9158 202.947 62.9158 199.738C62.9158 196.53 60.3159 193.929 57.1087 193.929C53.9016 193.929 51.3016 196.53 51.3016 199.738C51.3016 202.947 53.9016 205.548 57.1087 205.548Z" fill="#DEB408"/>
<path d="M57.1087 203.987C59.4545 203.987 61.3562 202.085 61.3562 199.738C61.3562 197.392 59.4545 195.489 57.1087 195.489C54.7629 195.489 52.8612 197.392 52.8612 199.738C52.8612 202.085 54.7629 203.987 57.1087 203.987Z" fill="#FFD54C"/>
<path d="M61.9535 175.273H55.4163C55.0181 175.273 54.6863 175.605 54.6863 176.004C54.6863 176.402 55.0181 176.734 55.4163 176.734H61.9535C62.3517 176.734 62.6835 176.402 62.6835 176.004C62.6835 175.605 62.3517 175.273 61.9535 175.273Z" fill="#E2A62C"/>
<path d="M61.9535 178.692H55.4163C55.0181 178.692 54.6863 179.024 54.6863 179.423C54.6863 179.821 55.0181 180.153 55.4163 180.153H61.9535C62.3517 180.153 62.6835 179.821 62.6835 179.423C62.6835 179.024 62.3517 178.692 61.9535 178.692Z" fill="#E2A62C"/>
<path d="M61.9535 182.112H55.4163C55.0181 182.112 54.6863 182.443 54.6863 182.842C54.6863 183.24 55.0181 183.572 55.4163 183.572H61.9535C62.3517 183.572 62.6835 183.24 62.6835 182.842C62.6835 182.443 62.3517 182.112 61.9535 182.112Z" fill="#E2A62C"/>
<path d="M156.228 212.087H151.018V192.037C151.018 184.9 156.825 179.058 163.993 179.058H168.008V184.269H163.993C159.712 184.269 156.228 187.755 156.228 192.037V212.087Z" fill="#333E48"/>
<path d="M130.179 212.319C130.179 212.718 130.145 213.116 130.046 213.514H120.522C120.423 213.149 120.389 212.751 120.389 212.319C120.389 211.755 120.489 211.191 120.655 210.693C121.319 208.767 123.144 207.406 125.301 207.406C125.699 207.406 126.097 207.44 126.462 207.539C128.088 207.938 129.382 209.133 129.946 210.693C130.079 211.191 130.179 211.722 130.179 212.319Z" fill="#333E48"/>
<path d="M154.867 210.892C154.867 211.29 154.834 211.689 154.734 212.087C154.602 212.585 154.403 213.05 154.137 213.481H145.808C145.742 213.348 145.675 213.249 145.609 213.116C145.576 213.05 145.543 212.983 145.509 212.917C145.244 212.319 145.078 211.622 145.078 210.892C145.078 210.826 145.078 210.759 145.078 210.66C145.111 210.029 145.244 209.431 145.509 208.867C146.273 207.174 147.998 205.979 149.989 205.979C150.022 205.979 150.055 205.979 150.089 205.979C150.421 205.979 150.719 206.012 151.018 206.079C153.175 206.543 154.801 208.402 154.9 210.66C154.867 210.759 154.867 210.826 154.867 210.892Z" fill="#333E48"/>
<path d="M145.708 213.116C148.421 213.116 150.62 210.916 150.62 208.203C150.62 205.49 148.421 203.29 145.708 203.29C142.996 203.29 140.797 205.49 140.797 208.203C140.797 210.916 142.996 213.116 145.708 213.116Z" fill="#333E48"/>
<path d="M145.709 210.892C145.709 211.589 145.642 212.253 145.509 212.917C145.509 212.983 145.476 213.05 145.476 213.116C145.443 213.249 145.41 213.382 145.377 213.481H126.197C125.964 212.651 125.865 211.788 125.865 210.892C125.865 210.826 125.865 210.759 125.865 210.66C125.898 209.564 126.097 208.502 126.462 207.506C127.823 203.689 131.506 200.933 135.82 200.933C138.674 200.933 141.262 202.128 143.054 204.087C143.353 204.386 143.618 204.718 143.85 205.05C144.182 205.514 144.481 205.979 144.713 206.51C145.078 207.24 145.344 208.037 145.543 208.867C145.675 209.465 145.742 210.062 145.742 210.66C145.709 210.759 145.709 210.826 145.709 210.892Z" fill="#333E48"/>
<path d="M164.424 213.481H12.5101C12.5101 211.921 13.7711 210.66 15.3307 210.66H161.636C162.4 210.66 163.13 210.991 163.627 211.489C164.125 212.021 164.424 212.718 164.424 213.481Z" fill="#333E48"/>
<path d="M132.236 204.419C132.786 204.419 133.231 203.973 133.231 203.423C133.231 202.873 132.786 202.427 132.236 202.427C131.686 202.427 131.24 202.873 131.24 203.423C131.24 203.973 131.686 204.419 132.236 204.419Z" fill="#53616E"/>
<path d="M144.68 206.51C145.23 206.51 145.675 206.064 145.675 205.514C145.675 204.964 145.23 204.518 144.68 204.518C144.13 204.518 143.684 204.964 143.684 205.514C143.684 206.064 144.13 206.51 144.68 206.51Z" fill="#53616E"/>
<path d="M135.488 203.755C135.873 203.755 136.185 203.443 136.185 203.058C136.185 202.673 135.873 202.361 135.488 202.361C135.103 202.361 134.791 202.673 134.791 203.058C134.791 203.443 135.103 203.755 135.488 203.755Z" fill="#53616E"/>
<path d="M132.236 207.838C132.621 207.838 132.933 207.526 132.933 207.141C132.933 206.756 132.621 206.444 132.236 206.444C131.851 206.444 131.539 206.756 131.539 207.141C131.539 207.526 131.851 207.838 132.236 207.838Z" fill="#53616E"/>
<path d="M124.67 209.796C125 209.796 125.268 209.529 125.268 209.199C125.268 208.869 125 208.601 124.67 208.601C124.34 208.601 124.073 208.869 124.073 209.199C124.073 209.529 124.34 209.796 124.67 209.796Z" fill="#53616E"/>
<path d="M234.165 160.881L230.58 161.981L235.569 178.262L239.154 177.163L234.165 160.881Z" fill="#E4E5E6"/>
<path d="M238.346 177.394L236.379 177.997L240.036 189.93L242.003 189.327L238.346 177.394Z" fill="#44515C"/>
<path d="M147.766 143.14C146.87 142.974 145.974 143.539 145.808 144.435L138.076 182.908C137.91 183.804 138.474 184.701 139.37 184.867C140.266 185.033 141.162 184.468 141.328 183.572L149.06 145.099C149.259 144.202 148.662 143.339 147.766 143.14Z" fill="#A9C0E4"/>
<path d="M257.404 187.987H159.347V195.423H257.404V187.987Z" fill="#F3B73C"/>
<path d="M257.371 195.423H173.583V201H257.371V195.423Z" fill="#333E48"/>
<path d="M175.673 213.514C182.417 213.514 187.885 208.045 187.885 201.299C187.885 194.552 182.417 189.083 175.673 189.083C168.929 189.083 163.462 194.552 163.462 201.299C163.462 208.045 168.929 213.514 175.673 213.514Z" fill="#44515C"/>
<path d="M175.673 208.768C179.797 208.768 183.139 205.424 183.139 201.299C183.139 197.174 179.797 193.83 175.673 193.83C171.55 193.83 168.207 197.174 168.207 201.299C168.207 205.424 171.55 208.768 175.673 208.768Z" fill="#B6B8BA"/>
<path d="M175.673 206.079C178.312 206.079 180.451 203.939 180.451 201.299C180.451 198.659 178.312 196.518 175.673 196.518C173.034 196.518 170.895 198.659 170.895 201.299C170.895 203.939 173.034 206.079 175.673 206.079Z" fill="#E4E5E6"/>
<path d="M204.742 213.514C211.486 213.514 216.953 208.045 216.953 201.299C216.953 194.552 211.486 189.083 204.742 189.083C197.998 189.083 192.53 194.552 192.53 201.299C192.53 208.045 197.998 213.514 204.742 213.514Z" fill="#44515C"/>
<path d="M204.742 208.768C208.865 208.768 212.208 205.424 212.208 201.299C212.208 197.174 208.865 193.83 204.742 193.83C200.618 193.83 197.276 197.174 197.276 201.299C197.276 205.424 200.618 208.768 204.742 208.768Z" fill="#B6B8BA"/>
<path d="M204.742 206.079C207.381 206.079 209.52 203.939 209.52 201.299C209.52 198.659 207.381 196.518 204.742 196.518C202.103 196.518 199.963 198.659 199.963 201.299C199.963 203.939 202.103 206.079 204.742 206.079Z" fill="#E4E5E6"/>
<path d="M257.371 145.331V204.95H302.799V151.041C302.799 147.887 300.244 145.331 297.091 145.331H257.371Z" fill="#FFC63E"/>
<path d="M294.47 194.693V206.045H300.045C303.23 206.045 305.819 203.456 305.819 200.269V194.693H294.47Z" fill="#44515C"/>
<path d="M301.67 180.518H297.058V192.302H301.67V180.518Z" fill="#E4E5E6"/>
<path d="M301.67 180.518H297.058V186.427H301.67V180.518Z" fill="#EF3D55"/>
<path d="M300.144 153.232H275.024V173.016H300.144V153.232Z" fill="#6581B8"/>
<path d="M264.193 172.985H270V153.201H264.193V172.985Z" fill="#6581B8"/>
<path d="M280.964 175.638H275.024V177.763H280.964V175.638Z" fill="#F3B73C"/>
<path d="M273.498 213.514C280.242 213.514 285.709 208.045 285.709 201.299C285.709 194.552 280.242 189.083 273.498 189.083C266.754 189.083 261.286 194.552 261.286 201.299C261.286 208.045 266.754 213.514 273.498 213.514Z" fill="#44515C"/>
<path d="M273.498 208.768C277.621 208.768 280.964 205.424 280.964 201.299C280.964 197.174 277.621 193.83 273.498 193.83C269.374 193.83 266.032 197.174 266.032 201.299C266.032 205.424 269.374 208.768 273.498 208.768Z" fill="#B6B8BA"/>
<path d="M273.498 206.079C276.137 206.079 278.276 203.939 278.276 201.299C278.276 198.659 276.137 196.518 273.498 196.518C270.859 196.518 268.719 198.659 268.719 201.299C268.719 203.939 270.859 206.079 273.498 206.079Z" fill="#E4E5E6"/>
<path d="M252.161 195.456V197.913C252.161 199.938 250.502 201.597 248.477 201.597H232.549C230.525 201.597 228.866 199.938 228.866 197.913V195.456C228.866 193.431 230.525 191.771 232.549 191.771H248.477C250.535 191.771 252.161 193.398 252.161 195.456Z" fill="#6D7E8F"/>
<path d="M252.161 196.684V197.913C252.161 199.937 250.502 201.597 248.477 201.597H232.549C230.525 201.597 228.866 199.937 228.866 197.913V196.684H252.161Z" fill="#657585"/>
<path d="M236.166 191.439H234.375V201.896H236.166V191.439Z" fill="#53616E"/>
<path d="M246.719 191.439H244.927V201.896H246.719V191.439Z" fill="#53616E"/>
<path d="M161.869 191.439H157.986V198.211H161.869V191.439Z" fill="#44515C"/>
<path d="M252.559 98.1605L237.295 103.405L213.535 119.007L145.609 142.41L161.305 187.987L250.369 157.315L235.237 113.397H235.271L244.562 107.256L254.517 103.837C256.077 103.306 256.906 101.58 256.375 100.019C255.844 98.4592 254.119 97.6294 252.559 98.1605Z" fill="#CCD9EF"/>
<path d="M173.284 178.958C172.421 179.257 171.459 178.792 171.16 177.929L159.612 144.302C159.314 143.439 159.778 142.476 160.641 142.177C161.504 141.879 162.466 142.343 162.765 143.207L174.346 176.833C174.611 177.697 174.147 178.626 173.284 178.958Z" fill="#A9C0E4"/>
<path d="M185.695 174.676C184.832 174.975 183.869 174.51 183.571 173.647L171.99 140.02C171.691 139.157 172.156 138.194 173.018 137.895C173.881 137.597 174.844 138.061 175.142 138.924L186.723 172.551C187.022 173.414 186.557 174.377 185.695 174.676Z" fill="#A9C0E4"/>
<path d="M198.105 170.394C197.242 170.692 196.28 170.228 195.981 169.365L184.4 135.738C184.102 134.875 184.566 133.912 185.429 133.613C186.292 133.314 187.254 133.779 187.553 134.642L199.134 168.269C199.432 169.132 198.968 170.095 198.105 170.394Z" fill="#A9C0E4"/>
<path d="M210.516 166.111C209.653 166.41 208.691 165.945 208.392 165.082L196.811 131.455C196.512 130.592 196.977 129.63 197.84 129.331C198.702 129.032 199.665 129.497 199.963 130.36L211.544 163.987C211.843 164.883 211.378 165.813 210.516 166.111Z" fill="#A9C0E4"/>
<path d="M222.926 161.829C222.063 162.128 221.101 161.663 220.803 160.8L209.221 127.173C208.923 126.31 209.387 125.348 210.25 125.049C211.113 124.75 212.075 125.215 212.374 126.078L223.955 159.705C224.254 160.601 223.789 161.53 222.926 161.829Z" fill="#A9C0E4"/>
<path d="M235.337 157.58C234.474 157.879 233.512 157.414 233.213 156.551L221.665 122.924C221.367 122.061 221.831 121.098 222.694 120.8C223.557 120.501 224.519 120.966 224.818 121.829L236.399 155.456C236.664 156.319 236.2 157.281 235.337 157.58Z" fill="#A9C0E4"/>
<path d="M382.339 213.182H5.90665C2.65468 213.182 0 215.838 0 219.091C0 222.344 2.65468 225 5.90665 225H382.373C385.625 225 388.279 222.344 388.279 219.091C388.279 215.838 385.625 213.182 382.339 213.182Z" fill="#657585"/>
<path d="M7.49951 211.921C7.49951 212.784 8.19636 213.481 9.05913 213.481H21.7684C22.6312 213.481 23.328 212.784 23.328 211.921C23.328 211.058 22.6312 210.361 21.7684 210.361H9.05913C8.19636 210.394 7.49951 211.091 7.49951 211.921Z" fill="#E19226"/>
<path d="M20.6069 210.394H10.1873L10.7514 208.701L11.415 206.709L11.946 205.05L12.6096 203.058L13.4392 200.568H17.3549L18.1845 203.058L18.8481 205.05L19.4123 206.709L20.0759 208.701L20.6069 210.394Z" fill="#FBAD18"/>
<path d="M18.8482 205.05H11.946L12.6097 203.058H18.1845L18.8482 205.05Z" fill="#E4E5E6"/>
<path d="M20.0759 208.701H10.7513L11.415 206.709H19.4122L20.0759 208.701Z" fill="#E4E5E6"/>
<path d="M25.2526 211.921C25.2526 212.784 25.9494 213.481 26.8122 213.481H39.5214C40.3842 213.481 41.0811 212.784 41.0811 211.921C41.0811 211.058 40.3842 210.361 39.5214 210.361H26.8122C25.9494 210.394 25.2526 211.091 25.2526 211.921Z" fill="#E19226"/>
<path d="M38.3931 210.394H27.9403L28.5044 208.701L29.1681 206.709L29.7322 205.05L30.3959 203.058L31.1923 200.568H35.1411L35.9707 203.058L36.6012 205.05L37.1653 206.709L37.829 208.701L38.3931 210.394Z" fill="#FBAD18"/>
<path d="M36.6013 205.05H29.7323L30.396 203.058H35.9708L36.6013 205.05Z" fill="#E4E5E6"/>
<path d="M37.8291 208.701H28.5045L29.1682 206.709H37.1654L37.8291 208.701Z" fill="#E4E5E6"/>
<path d="M309.867 173.348V178.593C309.867 179.39 310.497 180.02 311.294 180.02H319.026V171.887H311.294C310.531 171.921 309.867 172.551 309.867 173.348Z" fill="#EF3D55"/>
<path d="M311.227 178.627V173.382C311.227 172.586 311.858 171.955 312.654 171.955H311.294C310.497 171.955 309.867 172.586 309.867 173.382V178.627C309.867 179.424 310.497 180.055 311.294 180.055H312.654C311.858 180.055 311.227 179.391 311.227 178.627Z" fill="#F1617A"/>
<path d="M319.822 171.921H319.059V188.784H319.822V171.921Z" fill="#333E48"/>
<path d="M342.353 195.655H338.504V211.987H342.353V195.655Z" fill="#FFD54C"/>
<path d="M337.874 211.523V213.182H343.283V211.523C343.283 210.66 342.586 209.929 341.69 209.929H339.433C338.604 209.962 337.874 210.66 337.874 211.523Z" fill="#44515C"/>
<path d="M336.679 195.655H332.83V211.987H336.679V195.655Z" fill="#FFD54C"/>
<path d="M332.199 211.523V213.182H337.608V211.523C337.608 210.66 336.911 209.929 336.015 209.929H333.759C332.929 209.962 332.199 210.66 332.199 211.523Z" fill="#44515C"/>
<path d="M351.379 187.39H342.055C340.927 187.39 340.031 186.493 340.031 185.365C340.031 184.236 340.927 183.34 342.055 183.34H349.388V177.365C349.388 176.236 350.284 175.34 351.413 175.34C352.541 175.34 353.437 176.236 353.437 177.365V185.365C353.404 186.493 352.508 187.39 351.379 187.39Z" fill="#EFC7B0"/>
<path d="M346.966 183.107H340.595V187.655H346.966V183.107Z" fill="#995699"/>
<path d="M334.754 187.39H319.291C318.163 187.39 317.267 186.493 317.267 185.365C317.267 184.236 318.163 183.34 319.291 183.34H334.754C335.883 183.34 336.779 184.236 336.779 185.365C336.779 186.493 335.883 187.39 334.754 187.39Z" fill="#EFC7B0"/>
<path d="M334.754 183.107H327.852V187.655H334.754V183.107Z" fill="#995699"/>
<path d="M343.382 187.489V188.485H332.133V187.489C332.133 185.73 332.929 184.136 334.223 183.107C334.622 182.775 335.086 182.51 335.584 182.311C336.248 182.012 337.011 181.846 337.774 181.846C338.571 181.846 339.301 182.012 339.997 182.311C340.495 182.51 340.927 182.809 341.358 183.141C342.586 184.136 343.382 185.73 343.382 187.489Z" fill="#995699"/>
<path d="M337.741 183.971C336.779 183.971 335.982 183.174 335.982 182.211V179.921H339.5V182.211C339.5 183.207 338.703 183.971 337.741 183.971Z" fill="#DFB5A0"/>
<path d="M331.005 174.045V176.833C331.005 177.796 331.801 178.593 332.763 178.593H343.083C344.046 178.593 344.842 177.796 344.842 176.833V174.045H331.005Z" fill="#333E48"/>
<path d="M337.741 167.074C334.223 167.074 331.37 169.929 331.37 173.448V176.203C331.37 179.721 334.223 182.576 337.741 182.576C341.258 182.576 344.112 179.721 344.112 176.203V173.448C344.112 169.929 341.258 167.074 337.741 167.074Z" fill="#EFC7B0"/>
<path d="M331.005 172.651V174.012H344.809V172.651C344.809 169.398 342.187 166.775 338.935 166.775H336.845C333.626 166.808 331.005 169.431 331.005 172.651Z" fill="#FFD54C"/>
<path d="M337.741 173.414C338.566 173.414 339.234 172.746 339.234 171.921C339.234 171.096 338.566 170.427 337.741 170.427C336.916 170.427 336.248 171.096 336.248 171.921C336.248 172.746 336.916 173.414 337.741 173.414Z" fill="#DEB408"/>
<path d="M344.245 178.726H343.316V175.97H344.245C344.676 175.97 345.041 176.336 345.041 176.767V177.962C345.041 178.394 344.676 178.726 344.245 178.726Z" fill="#EFC7B0"/>
<path d="M331.27 178.726H332.199V175.97H331.27C330.839 175.97 330.474 176.336 330.474 176.767V177.962C330.474 178.394 330.806 178.726 331.27 178.726Z" fill="#EFC7B0"/>
<path d="M342.353 176.502H333.493C332.133 176.502 331.005 175.406 331.005 174.012H344.809C344.809 175.406 343.714 176.502 342.353 176.502Z" fill="#DEB408"/>
<path d="M343.382 188.485V193.597C343.382 196.718 340.86 199.24 337.741 199.24C334.622 199.24 332.1 196.718 332.1 193.597V188.485H343.382Z" fill="#FFD54C"/>
<path d="M341.292 183.107V190.742H339.931V182.311C340.462 182.51 340.893 182.775 341.292 183.107Z" fill="#FFD54C"/>
<path d="M335.551 182.278V190.709H334.19V183.074C334.589 182.775 335.053 182.51 335.551 182.278Z" fill="#FFD54C"/>
<path d="M340.064 189.514H335.418V192.137H340.064V189.514Z" fill="#DEB408"/>
<path d="M374.475 188.352H372.75V213.116H374.475V188.352Z" fill="#7A4C58"/>
<path d="M360.206 188.352H358.481V213.116H360.206V188.352Z" fill="#7A4C58"/>
<path d="M353.072 191.937V193.929C353.072 194.991 353.935 195.888 355.03 195.888H377.959C379.021 195.888 379.917 195.025 379.917 193.929V191.937C379.917 190.875 379.054 189.979 377.959 189.979H355.03C353.968 190.012 353.072 190.875 353.072 191.937Z" fill="#FFD54C"/>
<path d="M358.912 190.012H357.186L358.945 195.888H360.671L358.912 190.012Z" fill="#333E48"/>
<path d="M363.956 190.012H362.23L363.989 195.888H365.714L363.956 190.012Z" fill="#333E48"/>
<path d="M369 190.012H367.274L369.033 195.888H370.759L369 190.012Z" fill="#333E48"/>
<path d="M374.044 190.012H372.318L374.077 195.888H375.802L374.044 190.012Z" fill="#333E48"/>
<path d="M353.072 200.568V202.56C353.072 203.622 353.935 204.518 355.03 204.518H377.959C379.021 204.518 379.917 203.655 379.917 202.56V200.568C379.917 199.506 379.054 198.61 377.959 198.61H355.03C353.968 198.643 353.072 199.506 353.072 200.568Z" fill="#FFD54C"/>
<path d="M358.912 198.643H357.186L358.945 204.518H360.671L358.912 198.643Z" fill="#333E48"/>
<path d="M363.956 198.643H362.23L363.989 204.518H365.714L363.956 198.643Z" fill="#333E48"/>
<path d="M369 198.643H367.274L369.033 204.518H370.759L369 198.643Z" fill="#333E48"/>
<path d="M374.044 198.643H372.318L374.077 204.518H375.802L374.044 198.643Z" fill="#333E48"/>
<path fill-rule="evenodd" clip-rule="evenodd" d="M291.681 182.231L294.741 182.236L294.34 183.546L293.057 183.534C293.126 183.285 293.142 183.189 293.004 183.176C292.831 183.159 292.759 183.291 292.687 183.539L292.206 184.967C292.206 184.967 292.152 185.149 292.338 185.169C292.501 185.186 292.565 185.025 292.565 185.025L292.656 184.776L293.927 184.78L293.519 185.971L290.481 185.979L291.681 182.231Z" fill="#2684B9"/>
<path fill-rule="evenodd" clip-rule="evenodd" d="M287.916 182.231H291.127L290.825 183.186L289.004 183.187L288.863 183.605L290.687 183.599L290.388 184.553L288.576 184.542L288.39 185.088L290.244 185.096L289.953 185.979H286.702L287.916 182.231Z" fill="#2684B9"/>
<path fill-rule="evenodd" clip-rule="evenodd" d="M285.981 182.231H287.369L286.179 185.979H284.782L285.23 184.57L284.276 184.569L283.826 185.979H282.457L283.644 182.231H285.062L284.576 183.629L285.546 183.626L285.981 182.231Z" fill="#2684B9"/>
<path fill-rule="evenodd" clip-rule="evenodd" d="M288.637 180C289.071 180.53 289.856 181.141 291.127 181.864C287.837 181.048 284.955 181.004 282.677 182.1C280.656 183.072 280.496 185.397 282.457 186.344C284.403 187.424 287.4 187.371 291.127 186.532C289.913 187.703 285.161 189.483 280.901 187.92C276.729 186.239 277.308 181.966 281.037 180.531C282.873 179.824 285.828 179.84 289.042 180.827L288.637 180Z" fill="#2684B9"/>
</svg>
