<svg width="69" height="55" viewBox="0 0 69 55" fill="none" xmlns="http://www.w3.org/2000/svg">
<path fill-rule="evenodd" clip-rule="evenodd" d="M52.2539 7.98279L63.2033 8.00025L61.7679 12.6871L57.1773 12.645C57.422 11.7556 57.4798 11.4109 56.9879 11.3624C56.3694 11.3016 56.1093 11.7751 55.8543 12.6644L54.13 17.7723C54.13 17.7723 53.9399 18.423 54.6052 18.4941C55.1864 18.5556 55.4151 17.9793 55.4151 17.9793L55.74 17.088L60.2895 17.1035L58.831 21.3647L47.9601 21.3932L52.2539 7.98279Z" fill="#FFFEFE"/>
<path fill-rule="evenodd" clip-rule="evenodd" d="M38.7823 7.98279H50.2699L49.1903 11.3986L42.6759 11.4044L42.1684 12.8979L48.6955 12.8785L47.6261 16.2917L41.1423 16.2529L40.4783 18.205L47.1117 18.2354L46.0712 21.3932H34.4391L38.7823 7.98279Z" fill="#FFFEFE"/>
<path fill-rule="evenodd" clip-rule="evenodd" d="M31.859 7.98279H36.8226L32.5653 21.3932H27.5693L29.1698 16.3513L25.7567 16.3467L24.1477 21.3932H19.2495L23.4958 7.98279H28.57L26.8299 12.9846L30.3018 12.9742L31.859 7.98279Z" fill="#FFFEFE"/>
<path fill-rule="evenodd" clip-rule="evenodd" d="M41.3621 0C42.9151 1.89516 45.7249 4.08139 50.271 6.66864C38.4977 3.75087 28.1871 3.59304 20.0375 7.51337C12.8061 10.9926 12.2335 19.3119 19.2502 22.6992C26.21 26.5639 36.9356 26.3731 50.271 23.3719C45.9277 27.5633 28.9246 33.9299 13.6796 28.3395C-1.24588 22.3247 0.823869 7.03603 14.1666 1.89839C20.7386 -0.631291 31.3088 -0.571782 42.8097 2.95917L41.3621 0Z" fill="#FFFEFE"/>
<path fill-rule="evenodd" clip-rule="evenodd" d="M53.3083 42.9977L55.4675 43.005C55.3814 44.3056 55.6872 45.0665 56.6566 44.9143L56.6771 47.1022L55.0164 47.1036C53.6222 46.8926 53.2156 45.2407 53.3083 42.9977Z" fill="#FFFDFD"/>
<path fill-rule="evenodd" clip-rule="evenodd" d="M53.2958 54.0943V51.9652C54.4601 52.1608 54.9469 50.0994 54.8075 48.3158L56.92 48.2908C56.9193 51.5381 55.8733 54.0546 54.5148 54.0656L53.2958 54.0943Z" fill="#FFFDFD"/>
<path fill-rule="evenodd" clip-rule="evenodd" d="M53.3083 38.2427L55.4675 38.2501C55.3814 39.5506 55.6872 40.3115 56.6566 40.1593L56.6771 42.3472L55.0164 42.3487C53.6222 42.1377 53.2156 40.4857 53.3083 38.2427Z" fill="#FFFDFD"/>
<path fill-rule="evenodd" clip-rule="evenodd" d="M62.0427 38.6735L62.0376 37.9692L64.4296 37.9832L64.4129 38.7316L68.9919 38.7478L68.9926 40.385L65.6516 40.4093L65.6385 41.4179L65.6399 44.2667L63.7187 44.2932L63.7179 40.4313L62.731 40.4144L62.7252 44.2939L60.8273 44.2917L60.8324 40.3975L57.6622 40.3968L57.6644 38.7162L62.0427 38.6735Z" fill="#FFFDFD"/>
<path fill-rule="evenodd" clip-rule="evenodd" d="M66.1062 41.6954C66.1062 41.6954 66.1668 44.0826 67.6866 44.273L68.9749 44.2678L68.9946 42.6512L68.3486 42.6593C68.3486 42.6593 68.0734 42.66 67.9581 42.299C67.8435 41.9388 67.8099 41.6866 67.8099 41.68C67.8099 41.6734 66.1062 41.6954 66.1062 41.6954Z" fill="#FFFDFD"/>
<path fill-rule="evenodd" clip-rule="evenodd" d="M60.5529 41.7175C60.5529 41.7175 60.4923 44.1046 58.9725 44.2951L57.6841 44.2899L57.6644 42.6733L58.3104 42.6813C58.3104 42.6813 58.5856 42.6821 58.701 42.3211C58.8156 41.9609 58.8491 41.7087 58.8491 41.7021C58.8491 41.6955 60.5529 41.7175 60.5529 41.7175Z" fill="#FFFDFD"/>
<path fill-rule="evenodd" clip-rule="evenodd" d="M57.6578 44.8282L68.9999 44.8312L68.9875 48.1696C68.9875 48.1696 69.005 48.6136 68.6648 48.9357C68.3641 49.2194 67.8181 49.1952 67.8181 49.1952L60.2952 49.1841L60.3142 49.9333L68.9955 50.0031L68.9933 53.1541C68.9554 53.9253 68.5809 54.3789 67.8042 54.3656L58.8827 54.3414V52.6358L66.0217 52.638C66.3188 52.6321 66.6684 52.4476 66.629 52.0925C66.6035 51.8616 66.4013 51.6683 66.0188 51.6756L58.6163 51.6624C57.9761 51.7095 57.6892 51.325 57.6746 50.6082L57.663 47.5763L65.9487 47.5278C66.221 47.5307 66.3932 47.4028 66.3867 47.0146C66.383 46.7595 66.2845 46.5684 65.9173 46.5515L57.6768 46.5405L57.6578 44.8282Z" fill="#FFFDFD"/>
<path fill-rule="evenodd" clip-rule="evenodd" d="M35.6416 38.9661L38.2256 38.9859C38.1052 40.6099 38.5235 41.4995 39.6907 41.3664L39.7148 43.3315L37.6118 43.3227C36.2314 43.3492 35.7642 41.5098 35.6416 38.9661Z" fill="#FFFDFD"/>
<path fill-rule="evenodd" clip-rule="evenodd" d="M41.7512 38.2383H44.379L44.3798 39.5079L47.0543 39.5204L47.0434 38.2383H49.4712L49.4676 39.4638L50.8968 39.4888L50.9041 41.1481L49.4398 41.179L49.4559 42.4067L51.1465 42.4133L51.1611 44.3086L48.7485 44.3387C48.7164 44.6938 48.8048 44.9813 49.2661 45.0555L51.1333 45.0813L51.1494 46.7494L47.9814 46.7847C47.0405 46.8141 46.5485 45.8017 46.3441 44.1042L44.8805 44.1285C44.7856 45.6569 44.3155 46.6317 43.2542 46.7361L40.3059 46.7655L40.3022 44.849L41.7884 44.8548C42.1819 44.832 42.387 44.5953 42.3863 44.1263L40.2971 44.113L40.3103 42.4449L41.9848 42.4626L41.9928 41.1738L40.5497 41.1613L40.546 39.4954L41.7454 39.4528L41.7512 38.2383ZM47.0755 42.617L47.0594 41.1621L44.1622 41.1775L44.1673 42.617H47.0755Z" fill="#FFFDFD"/>
<path fill-rule="evenodd" clip-rule="evenodd" d="M40.4241 46.9852L40.4292 52.9981C40.4292 52.9981 40.3409 53.6458 40.9577 54.1016C41.3883 54.42 41.9847 54.3612 41.9847 54.3612H51.0508L51.0435 52.3806L43.3629 52.3593C43.1672 52.3791 42.8621 52.1968 42.8599 51.9094C42.8577 51.6322 43.0994 51.4036 43.3198 51.3933L49.2266 51.3947C50.0208 51.4344 50.4887 50.9882 50.5639 49.9531L50.5792 46.9991L40.4241 46.9852ZM42.8599 48.6724L42.8629 49.6671L48.1988 49.7024L48.2061 48.7114L42.8599 48.6724Z" fill="#FFFDFD"/>
<path fill-rule="evenodd" clip-rule="evenodd" d="M35.6416 43.9813L38.2256 44.0012C38.1052 45.6252 38.5235 46.5147 39.6907 46.3817L39.7148 48.3468L37.6118 48.338C36.2314 48.3644 35.7642 46.525 35.6416 43.9813Z" fill="#FFFDFD"/>
<path fill-rule="evenodd" clip-rule="evenodd" d="M37.0467 49.1789L39.7155 49.1378C39.7111 51.7337 38.8015 54.4428 37.484 54.3619H35.381L35.3788 52.1821C36.7329 52.3931 37.1073 51.1176 37.0467 49.1789Z" fill="#FFFDFD"/>
<path fill-rule="evenodd" clip-rule="evenodd" d="M32.8921 38.2383L32.9695 53.0858C32.8264 53.9916 32.1702 54.3224 31.2548 54.3628L17.8995 54.1562L17.9382 38.2383H32.8921ZM30.3256 40.3394L20.2733 40.3982L20.312 52.1588L30.3832 52.0801L30.3256 40.3394Z" fill="#FFFDFD"/>
<path fill-rule="evenodd" clip-rule="evenodd" d="M20.7946 41.0701H29.727V43.2823H26.5641V45.082H29.3014V47.2772H26.5641V49.1592H27.3182V47.6735H28.8752V49.1592H29.727V51.2486H20.7946V49.1592H24.2034V47.2772H21.3683V45.082H24.2034V43.2823H20.7946V41.0701Z" fill="#FFFDFD"/>
<path fill-rule="evenodd" clip-rule="evenodd" d="M8.81348 40.3026H15.4656L15.3882 48.6755C15.3743 49.7974 14.2254 50.1054 13.5545 50.0488L8.81348 50.0334V54.3643H6.11265V50.0334H0V40.3026H6.29733L6.34405 37.9604H8.85947L8.81348 40.3026ZM6.29733 42.8669H2.42346V47.4221H6.29733V42.8669ZM12.8421 42.8669H8.96751V47.4221H12.8421V42.8669Z" fill="#FFFDFD"/>
</svg>
