<svg width="272" height="43" viewBox="0 0 272 43" fill="none" xmlns="http://www.w3.org/2000/svg">
<path fill-rule="evenodd" clip-rule="evenodd" d="M65.5801 12.0338L80.2485 12.0572L78.3256 18.3359L72.1758 18.2796C72.5036 17.0881 72.581 16.6263 71.922 16.5613C71.0935 16.4799 70.745 17.1141 70.4035 18.3056L68.0934 25.1484C68.0934 25.1484 67.8387 26.0201 68.7301 26.1154C69.5087 26.1977 69.815 25.4257 69.815 25.4257L70.2503 24.2316L76.3451 24.2524L74.3912 29.9609L59.8279 29.9991L65.5801 12.0338Z" fill="#2684B9"/>
<path fill-rule="evenodd" clip-rule="evenodd" d="M47.5328 12.0338H62.9222L61.4759 16.6098L52.7488 16.6176L52.0689 18.6184L60.8131 18.5924L59.3804 23.1649L50.6943 23.113L49.8048 25.7281L58.6913 25.7688L57.2973 29.9991H41.7144L47.5328 12.0338Z" fill="#2684B9"/>
<path fill-rule="evenodd" clip-rule="evenodd" d="M38.2579 12.0338H44.9074L39.204 29.9991H32.5111L34.6552 23.2447L30.0829 23.2386L27.9273 29.9991H21.3655L27.0541 12.0338H33.8517L31.5206 18.7345L36.1718 18.7206L38.2579 12.0338Z" fill="#2684B9"/>
<path fill-rule="evenodd" clip-rule="evenodd" d="M50.9889 1.33966C53.0693 3.87852 56.8335 6.80731 62.9238 10.2733C47.1516 6.36453 33.3389 6.15309 22.4213 11.405C12.7337 16.0659 11.9666 27.2109 21.3666 31.7488C30.6902 36.9262 45.0589 36.6706 62.9238 32.65C57.1053 38.2649 34.327 46.794 13.9038 39.3048C-6.09113 31.2471 -3.31837 10.7655 14.5563 3.88285C23.3605 0.493949 37.5209 0.573669 52.9282 5.30393L50.9889 1.33966Z" fill="#2684B9"/>
<path fill-rule="evenodd" clip-rule="evenodd" d="M230.418 13.2031L236.078 13.2223C235.852 16.6311 236.654 18.6255 239.194 18.2266L239.248 23.9612L234.895 23.965C231.241 23.412 230.175 19.0821 230.418 13.2031Z" fill="#2684B9"/>
<path fill-rule="evenodd" clip-rule="evenodd" d="M230.385 42.288V36.7076C233.437 37.2202 234.713 31.817 234.348 27.1423L239.885 27.0768C239.883 35.5881 237.141 42.184 233.581 42.2129L230.385 42.288Z" fill="#2684B9"/>
<path fill-rule="evenodd" clip-rule="evenodd" d="M230.418 0.73999L236.078 0.759255C235.852 4.16801 236.654 6.1624 239.194 5.76353L239.248 11.4981L234.895 11.5019C231.241 10.9489 230.175 6.61907 230.418 0.73999Z" fill="#2684B9"/>
<path fill-rule="evenodd" clip-rule="evenodd" d="M253.311 1.86913L253.298 0.0231323L259.568 0.0597329L259.524 2.02137L271.526 2.06375L271.528 6.35505L262.771 6.41863L262.736 9.0624L262.74 16.5293L257.704 16.5987L257.702 6.47645L255.116 6.43213L255.1 16.6006L250.126 16.5948L250.139 6.38781L241.83 6.38588L241.836 1.98091L253.311 1.86913Z" fill="#2684B9"/>
<path fill-rule="evenodd" clip-rule="evenodd" d="M263.963 9.7898C263.963 9.7898 264.121 16.0466 268.105 16.5456L271.482 16.5321L271.533 12.2948L269.84 12.316C269.84 12.316 269.119 12.318 268.816 11.3718C268.516 10.4276 268.428 9.76668 268.428 9.74934C268.428 9.732 263.963 9.7898 263.963 9.7898Z" fill="#2684B9"/>
<path fill-rule="evenodd" clip-rule="evenodd" d="M249.407 9.84772C249.407 9.84772 249.248 16.1045 245.264 16.6036L241.888 16.5901L241.836 12.3527L243.529 12.3739C243.529 12.3739 244.25 12.3759 244.553 11.4297C244.853 10.4856 244.941 9.8246 244.941 9.80726C244.941 9.78992 249.407 9.84772 249.407 9.84772Z" fill="#2684B9"/>
<path fill-rule="evenodd" clip-rule="evenodd" d="M241.818 18.0012L271.547 18.0089L271.514 26.7591C271.514 26.7591 271.56 27.923 270.669 28.767C269.88 29.5108 268.449 29.4471 268.449 29.4471L248.731 29.4183L248.781 31.3818L271.535 31.5649L271.53 39.8237C271.43 41.8451 270.449 43.034 268.413 42.9993L245.029 42.9357V38.4652L263.741 38.471C264.519 38.4556 265.436 37.9719 265.333 37.0412C265.266 36.4362 264.736 35.9294 263.733 35.9487L244.331 35.914C242.653 36.0373 241.901 35.0295 241.862 33.1507L241.832 25.2041L263.549 25.0769C264.263 25.0846 264.715 24.7493 264.697 23.7319C264.688 23.0632 264.429 22.5622 263.467 22.5179L241.868 22.489L241.818 18.0012Z" fill="#2684B9"/>
<path fill-rule="evenodd" clip-rule="evenodd" d="M184.112 2.63586L190.885 2.6879C190.57 6.9445 191.666 9.2761 194.725 8.92732L194.788 14.078L189.276 14.0549C185.658 14.1243 184.434 9.30307 184.112 2.63586Z" fill="#2684B9"/>
<path fill-rule="evenodd" clip-rule="evenodd" d="M200.126 0.728394H207.014L207.016 4.05622L214.026 4.08896L213.997 0.728394H220.361L220.351 3.94061L224.097 4.00612L224.116 8.3552L220.278 8.43614L220.32 11.6541L224.752 11.6715L224.79 16.6391L218.466 16.7181C218.382 17.6488 218.614 18.4023 219.823 18.5969L224.717 18.6643L224.759 23.0365L216.456 23.129C213.989 23.2061 212.7 20.5527 212.164 16.1034L208.328 16.167C208.079 20.1731 206.847 22.7282 204.065 23.0019L196.338 23.0789L196.328 18.0554L200.224 18.0708C201.255 18.0111 201.792 17.3906 201.79 16.1612L196.315 16.1266L196.349 11.7543L200.738 11.8006L200.759 8.42266L196.977 8.3899L196.967 4.02345L200.111 3.9117L200.126 0.728394ZM214.081 12.2052L214.039 8.39183L206.445 8.43228L206.459 12.2052H214.081Z" fill="#2684B9"/>
<path fill-rule="evenodd" clip-rule="evenodd" d="M196.648 23.6546L196.661 39.415C196.661 39.415 196.429 41.1127 198.046 42.3074C199.175 43.1417 200.738 42.9876 200.738 42.9876H224.501L224.482 37.7964L204.35 37.7405C203.838 37.7925 203.038 37.3147 203.032 36.5612C203.026 35.8348 203.66 35.2355 204.238 35.2085L219.72 35.2124C221.801 35.3164 223.028 34.1468 223.225 31.4337L223.265 23.6912L196.648 23.6546ZM203.032 28.0769L203.04 30.6841L217.026 30.7766L217.045 28.179L203.032 28.0769Z" fill="#2684B9"/>
<path fill-rule="evenodd" clip-rule="evenodd" d="M184.112 15.7812L190.885 15.8333C190.57 20.0899 191.666 22.4215 194.725 22.0727L194.788 27.2234L189.276 27.2003C185.658 27.2697 184.434 22.4485 184.112 15.7812Z" fill="#2684B9"/>
<path fill-rule="evenodd" clip-rule="evenodd" d="M187.795 29.4046L194.79 29.2968C194.779 36.1008 192.395 43.2015 188.941 42.9896H183.429L183.424 37.2762C186.973 37.8292 187.954 34.486 187.795 29.4046Z" fill="#2684B9"/>
<path fill-rule="evenodd" clip-rule="evenodd" d="M176.906 0.728394L177.109 39.6448C176.734 42.0188 175.014 42.8859 172.614 42.9919L137.609 42.4505L137.711 0.728394H176.906ZM170.179 6.23557L143.831 6.38974L143.933 37.215L170.33 37.0088L170.179 6.23557Z" fill="#2684B9"/>
<path fill-rule="evenodd" clip-rule="evenodd" d="M145.197 8.15082H168.61V13.949H160.32V18.6661H167.495V24.42H160.32V29.3529H162.296V25.4586H166.377V29.3529H168.61V34.8293H145.197V29.3529H154.132V24.42H146.701V18.6661H154.132V13.949H145.197V8.15082Z" fill="#2684B9"/>
<path fill-rule="evenodd" clip-rule="evenodd" d="M113.794 6.13922H131.23L131.027 28.0851C130.991 31.0256 127.979 31.833 126.221 31.6847L113.794 31.6442V42.9958H106.715V31.6442H90.6935V6.13922H107.199L107.322 0H113.915L113.794 6.13922ZM107.199 12.8604H97.0455V24.7997H107.199V12.8604ZM124.354 12.8604H114.198V24.7997H124.354V12.8604Z" fill="#2684B9"/>
</svg>
