<svg width="29" height="28" viewBox="0 0 29 28" fill="none" xmlns="http://www.w3.org/2000/svg">
<path fill-rule="evenodd" clip-rule="evenodd" d="M19.7993 18.8826H20.9504V25.2231L26.0154 22.3074V12.4496C26.4758 11.1537 27.1204 9.99669 28.1795 9.20992V23.5107L20.3979 27.8612L13.8595 23.6496L7.45927 27.8612L0 23.6033L0.0460449 3.42479L7.50531 7.40496L13.8595 4.16529L17.4971 5.92397C17.6812 7.03471 18.3719 8.14545 19.2468 9.2562L14.412 6.84959V12.1256H13.2609V6.80331L8.01181 9.4876V14.8099H6.90673V9.4876L2.07202 6.89587L2.02597 22.2612L6.90673 25.1769V18.8826H8.01181V25.038L13.2609 21.5207V16.2446H14.412V21.4744L19.7993 25.038V18.8826ZM23.5289 0C26.9363 0 29.5148 4.58182 26.3837 7.82149C24.9103 9.62645 24.0354 11.7554 23.5289 14.0231C22.9764 11.5702 22.1015 9.44132 20.6741 7.82149C17.5891 5.18347 19.477 0 23.5289 0ZM23.4829 2.49917C24.3577 2.49917 25.0945 3.23967 25.0945 4.11901C25.0945 4.99835 24.3577 5.73884 23.4829 5.73884C22.608 5.73884 21.8713 4.99835 21.8713 4.11901C21.8713 3.23967 22.608 2.49917 23.4829 2.49917ZM18.7403 15.4579L16.7143 14.1157L15.8855 15.4116L17.9115 16.8L18.7403 15.4579ZM19.6151 16.0595L19.0626 17.4017C20.0756 17.8645 21.0425 17.8182 21.9174 17.4017L21.3188 16.0595C20.8123 16.1983 20.2597 16.2446 19.6151 16.0595ZM13.2149 14.9488L12.6623 13.6066C13.6753 13.1438 14.6423 13.1901 15.5171 13.6066L14.9185 14.9488C14.412 14.8099 13.8595 14.7636 13.2149 14.9488ZM9.4392 15.4579L11.5112 14.1157L12.34 15.4116L10.3141 16.8L9.4392 15.4579ZM6.81464 16.0595L6.2621 17.4017C7.27509 17.8645 8.24203 17.8182 9.11689 17.4017L8.5183 16.0595C8.01181 16.1983 7.45927 16.2446 6.81464 16.0595ZM23.575 14.8099C24.2656 14.8099 24.8182 15.3653 24.8182 16.0595C24.8182 16.7074 24.2656 17.2628 23.575 17.2628C22.9303 17.2628 22.3778 16.7074 22.3778 16.0595C22.3778 15.3653 22.9303 14.8099 23.575 14.8099ZM4.5124 14.8099C5.20307 14.8099 5.75561 15.3653 5.75561 16.0595C5.75561 16.7074 5.20307 17.2628 4.5124 17.2628C3.86777 17.2628 3.31523 16.7074 3.31523 16.0595C3.31523 15.3653 3.86777 14.8099 4.5124 14.8099ZM7.22905 25.4083L7.41322 25.5008L7.55136 25.4083H7.22905Z" fill="black"/>
</svg>
