<svg width="30" height="28" viewBox="0 0 30 28" fill="none" xmlns="http://www.w3.org/2000/svg">
<path d="M15.5836 3.56917L8.67163 10.4474L16.8241 18.5601L23.736 11.6819L15.5836 3.56917Z" fill="black"/>
<path d="M19.5771 21.6846C18.9816 22.2772 18.016 22.2772 17.4205 21.6846C16.825 21.092 16.825 20.1312 17.4205 19.5386L24.7196 12.2751C25.3151 11.6825 26.2806 11.6825 26.8761 12.2751C27.4716 12.8677 27.4716 13.8286 26.8761 14.4212L19.5771 21.6846Z" fill="black"/>
<path d="M7.68852 9.85398C7.09298 10.4466 6.12747 10.4466 5.53196 9.85398C4.93645 9.26134 4.93645 8.30057 5.53196 7.70793L12.831 0.444455C13.4266 -0.148152 14.3921 -0.148152 14.9876 0.444455C15.5831 1.03706 15.5831 1.99787 14.9876 2.59051L7.68852 9.85398Z" fill="black"/>
<path d="M20.9042 7.98309L20.4618 8.42328L18.8583 6.82752L19.3006 6.38733C19.7436 5.94656 20.4578 5.94311 20.9007 6.38388C21.1222 6.60427 21.2348 6.89462 21.2348 7.18349C21.2348 7.47235 21.1257 7.7627 20.9042 7.98309Z" fill="black"/>
<path d="M11.9462 13.7058L13.5498 15.3016L1.93762 26.8571C1.49469 27.2978 0.773478 27.2944 0.33058 26.8537C0.109115 26.6333 0 26.3463 0 26.0575C0 25.7686 0.112576 25.4817 0.334041 25.2613L11.9462 13.7058Z" fill="black"/>
<path d="M9.46008 27.1732C9.46008 25.5319 10.808 24.1802 12.4708 24.1802H26.9892C28.652 24.1802 30 25.5319 30 27.1732H9.46008Z" fill="black"/>
</svg>
