<svg width="15" height="14" viewBox="0 0 15 14" fill="none" xmlns="http://www.w3.org/2000/svg">
<path d="M11.0751 0.103455H3.9046C2.16158 0.103455 0.758667 1.52055 0.758667 3.24942V10.4058C0.758667 12.1488 2.17576 13.5517 3.9046 13.5517H11.0609C12.8039 13.5517 14.2068 12.1346 14.2068 10.4058V3.24942C14.221 1.52055 12.8039 0.103455 11.0751 0.103455ZM8.21255 8.12424V10.0232C8.21255 10.4341 7.87245 10.7884 7.4615 10.7742C7.27727 10.7742 7.10722 10.6892 6.97969 10.5617C6.85215 10.4341 6.76712 10.2499 6.76712 10.0515V8.12424C6.76712 7.81248 6.51205 7.5574 6.20029 7.5574H4.27305C4.07465 7.5574 3.89043 7.47237 3.76289 7.34483C3.63536 7.21729 3.5645 7.04724 3.55033 6.86302C3.53616 6.45206 3.89043 6.11196 4.30139 6.11196C4.7832 6.11196 5.63345 6.11196 6.20029 6.11196C6.51205 6.11196 6.76712 5.85688 6.76712 5.54512V3.61786C6.76712 3.19273 7.13557 2.85263 7.56069 2.89514C7.92913 2.93765 8.21255 3.26359 8.21255 3.6462V5.54512C8.21255 5.85688 8.46763 6.11196 8.77939 6.11196H10.7066C11.1318 6.11196 11.4719 6.4804 11.4293 6.90553C11.3868 7.27398 11.0609 7.5574 10.6783 7.5574H8.77939C8.46763 7.5574 8.21255 7.81248 8.21255 8.12424Z" fill="#2684B9"/>
</svg>
