<svg width="46" height="28" viewBox="0 0 46 28" fill="none" xmlns="http://www.w3.org/2000/svg">
<path d="M8.89237 13.7521C10.0228 13.7521 10.9392 12.8928 10.9392 11.8327C10.9392 10.7727 10.0228 9.91333 8.89237 9.91333C7.76196 9.91333 6.84558 10.7727 6.84558 11.8327C6.84558 12.8928 7.76196 13.7521 8.89237 13.7521Z" fill="#863B3B"/>
<path d="M13.0787 19.9464H11.1715L10.8459 15.8459C10.7993 14.9298 10.0085 14.2318 9.03164 14.2318H8.75253C8.19431 14.2318 7.68261 14.4499 7.31047 14.8425C6.93832 15.2351 6.79877 15.7586 6.8918 16.2821L7.68261 20.9497C7.77565 21.386 8.1478 21.6913 8.61298 21.6913H12.2879L13.2183 26.5771C13.3113 27.0133 13.6835 27.3187 14.1487 27.3187C14.1952 27.3187 14.2417 27.3187 14.3347 27.3187C14.8464 27.2314 15.1721 26.7516 15.079 26.3154L14.0091 20.688C13.9161 20.2518 13.5439 19.9464 13.0787 19.9464Z" fill="#863B3B"/>
<path d="M44.1066 9.95686H43.0832L42.1993 3.02082C42.0598 2.14836 41.362 1.4504 40.4316 1.31953L37.501 0.883298C35.7798 0.621561 33.8726 0.490692 31.9188 0.490692C29.965 0.490692 28.0113 0.621561 26.3366 0.883298L23.4525 1.31953C22.5221 1.4504 21.7778 2.14836 21.6848 3.02082L20.8009 9.95686H19.7775C19.2658 9.95686 18.8472 10.3495 18.8472 10.8293V13.2286C18.8472 13.7084 19.2658 14.101 19.7775 14.101H20.3823V21.6478C20.3823 22.433 20.8475 23.0874 21.5452 23.4363V25.8792C21.5452 26.6644 22.243 27.3188 23.0803 27.3188H24.2433C25.0806 27.3188 25.7784 26.6644 25.7784 25.8792V23.6545H38.1057V25.8792C38.1057 26.6644 38.8035 27.3188 39.6408 27.3188H40.8038C41.6411 27.3188 42.3389 26.6644 42.3389 25.8792V23.4363C43.0366 23.131 43.5018 22.433 43.5018 21.6478V14.1447H44.1066C44.6183 14.1447 45.0369 13.7521 45.0369 13.2722V10.8729C45.0369 10.3495 44.6183 9.95686 44.1066 9.95686ZM29.1742 2.14836H34.6634C35.0355 2.14836 35.3146 2.4101 35.3146 2.75908C35.3146 3.10807 35.0355 3.3698 34.6634 3.3698H29.1742C28.8021 3.3698 28.523 3.10807 28.523 2.75908C28.523 2.4101 28.8021 2.14836 29.1742 2.14836ZM26.2436 20.1646C25.1736 20.1646 24.3363 19.3794 24.3363 18.3761C24.3363 17.3728 25.1736 16.5875 26.2436 16.5875C27.3135 16.5875 28.1508 17.3728 28.1508 18.3761C28.1508 19.3794 27.3135 20.1646 26.2436 20.1646ZM37.594 20.1646C36.5241 20.1646 35.6868 19.3794 35.6868 18.3761C35.6868 17.3728 36.5241 16.5875 37.594 16.5875C38.6639 16.5875 39.5013 17.3728 39.5013 18.3761C39.5013 19.3794 38.6174 20.1646 37.594 20.1646ZM23.7781 13.0541L24.8015 4.98385H31.9188H39.0361L40.0595 13.0541H23.7781Z" fill="#863B3B"/>
<path d="M16.754 1.45041H2.19376C1.44946 1.45041 0.844727 2.01751 0.844727 2.71547V26.0537C0.844727 26.7517 1.44946 27.3188 2.19376 27.3188C2.93805 27.3188 3.54279 26.7517 3.54279 26.0537V23.6545H11.0787C11.4044 23.6545 11.6835 23.3927 11.6835 23.0874C11.6835 22.782 11.4044 22.5203 11.0787 22.5203H8.33417C7.6364 22.5203 7.03166 22.0404 6.93862 21.3861L6.10129 16.4567C6.05477 16.1513 5.72915 15.9332 5.40352 15.9768C5.07789 16.0205 4.8453 16.3258 4.89182 16.6312L5.72915 21.5606C5.77566 21.9096 5.91522 22.2149 6.10129 22.5203H3.49627V3.93692H16.754C17.4983 3.93692 18.103 3.36982 18.103 2.67185C18.103 1.97388 17.4983 1.45041 16.754 1.45041Z" fill="#863B3B"/>
</svg>
