<svg width="34" height="33" viewBox="0 0 34 33" fill="none" xmlns="http://www.w3.org/2000/svg">
<path d="M32.6428 13.7834C33.1644 13.7834 33.5743 13.399 33.5743 12.9099C33.5743 12.4207 33.1644 12.0364 32.6428 12.0364H25.1909V10.6388L26.7931 9.13633C27.1657 8.78693 27.1657 8.22788 26.7931 7.91342C26.4205 7.56402 25.8243 7.56402 25.489 7.91342L23.6261 9.66044C23.4398 9.83514 23.3652 10.0448 23.3652 10.2894V22.5185C23.3652 22.7631 23.477 22.9727 23.6261 23.1474L25.489 24.8944C25.6753 25.0691 25.8989 25.139 26.1597 25.139C26.4205 25.139 26.6441 25.0691 26.8304 24.8944C27.2029 24.545 27.2029 23.986 26.8304 23.6715L25.2282 22.1691V20.7715H32.6801C33.2017 20.7715 33.6115 20.3871 33.6115 19.8979C33.6115 19.4088 33.2017 19.0244 32.6801 19.0244H25.2282V13.7834H32.6428Z" fill="#863B3B"/>
<path d="M13.0817 0.680847C12.5601 0.680847 12.1503 1.06519 12.1503 1.55435V2.42786V31.2536C12.1503 31.7428 12.5601 32.1271 13.0817 32.1271C13.6034 32.1271 14.0132 31.7428 14.0132 31.2536V2.42786V1.55435C14.0132 1.06519 13.6034 0.680847 13.0817 0.680847Z" fill="#863B3B"/>
<path d="M20.5335 0.680847C20.0119 0.680847 19.6021 1.06519 19.6021 1.55435V2.42786V31.2536C19.6021 31.7428 20.0119 32.1271 20.5335 32.1271C21.0552 32.1271 21.465 31.7428 21.465 31.2536V2.42786V1.55435C21.465 1.06519 21.0552 0.680847 20.5335 0.680847Z" fill="#863B3B"/>
<path d="M8.16355 7.91342C7.79096 7.56402 7.19481 7.56402 6.85948 7.91342C6.48688 8.26282 6.48688 8.82187 6.85948 9.13633L8.46163 10.6388V12.0364H1.00976C0.450868 12.0364 0.0410156 12.4207 0.0410156 12.9099C0.0410156 13.399 0.450868 13.7834 0.972499 13.7834H8.42437V19.0244H0.972499C0.450868 19.0244 0.0410156 19.4088 0.0410156 19.8979C0.0410156 20.3871 0.450868 20.7715 0.972499 20.7715H8.42437V22.1691L6.82222 23.6715C6.44962 24.0209 6.44962 24.58 6.82222 24.8944C7.00851 25.0691 7.23207 25.139 7.49288 25.139C7.7537 25.139 7.97726 25.0691 8.16355 24.8944L10.0265 23.1474C10.2128 22.9727 10.2873 22.7631 10.2873 22.5185V10.2894C10.2873 10.0448 10.1756 9.83514 10.0265 9.66044L8.16355 7.91342Z" fill="#863B3B"/>
</svg>
