<svg width="24" height="34" viewBox="0 0 24 34" fill="none" xmlns="http://www.w3.org/2000/svg">
<path d="M11.8786 33.0187C12.0651 33.0166 12.1887 32.9528 12.3116 32.8268C12.7417 32.3858 23.2457 21.4258 23.1314 11.5226C23.0581 5.16958 17.8394 0.0595117 11.4992 0.132656C5.15912 0.2058 0.0596402 5.43491 0.132933 11.7879C0.247184 21.6911 10.9391 32.4066 11.4414 32.8369C11.5671 32.96 11.6922 33.0209 11.8786 33.0187ZM5.85147 11.7219C5.81411 8.48314 8.39456 5.83709 11.6268 5.7998C14.859 5.76251 17.4998 8.34833 17.5372 11.5871C17.5745 14.8259 14.9941 17.4719 11.7619 17.5092C8.46678 17.4849 5.88812 14.8984 5.85147 11.7219Z" fill="#2684B9"/>
</svg>
