<svg width="33" height="30" viewBox="0 0 33 30" fill="none" xmlns="http://www.w3.org/2000/svg">
<path d="M30.6545 10.2175C31.2228 9.68465 31.6692 9.0635 31.9814 8.37181C32.3043 7.65485 32.4684 6.89425 32.4684 6.11068C32.4684 5.32711 32.3043 4.56651 31.981 3.84955C31.6689 3.15786 31.2228 2.53671 30.6542 2.00383C30.0859 1.47095 29.4236 1.05226 28.6859 0.759572C27.9218 0.456382 27.1103 0.30249 26.2748 0.30249C25.4392 0.30249 24.6281 0.456382 23.8636 0.759572C23.1259 1.05226 22.4636 1.47063 21.8953 2.00383C21.3271 2.53671 20.8806 3.15786 20.5685 3.84955C20.2452 4.56651 20.0811 5.32711 20.0811 6.11068V9.26038H17.2636V8.29995C17.2636 8.01973 17.0215 7.79266 16.7227 7.79266C16.4239 7.79266 16.1817 8.01973 16.1817 8.29995V9.26038H13.3643V6.11068C13.3643 5.32711 13.2002 4.56651 12.8769 3.84955C12.5648 3.15786 12.1186 2.53671 11.55 2.00383C10.9818 1.47095 10.3194 1.05226 9.58181 0.759572C8.81726 0.456382 8.00583 0.30249 7.17061 0.30249C6.33538 0.30249 5.52395 0.456382 4.75941 0.759572C4.02181 1.05226 3.35944 1.47063 2.79119 2.00383C2.22294 2.53671 1.77646 3.15786 1.46435 3.84955C1.14103 4.56618 0.976929 5.32711 0.976929 6.11068C0.976929 6.89425 1.14103 7.65485 1.46435 8.37181C1.77646 9.0635 2.22259 9.68465 2.79119 10.2175C3.35944 10.7504 4.02181 11.1691 4.75941 11.4618C5.52395 11.765 6.33503 11.9189 7.17061 11.9189H11.9468H13.3643H20.0814H21.4989H26.2751C27.1107 11.9189 27.9218 11.765 28.6863 11.4618C29.4239 11.1691 30.0859 10.7504 30.6545 10.2175ZM7.17061 9.26005C5.31856 9.26005 3.81186 7.84713 3.81186 6.11035C3.81186 4.37357 5.31856 2.96065 7.17061 2.96065C9.02266 2.96065 10.5294 4.37357 10.5294 6.11035V9.26005H7.17061ZM26.2748 2.96098C28.1268 2.96098 29.6335 4.3739 29.6335 6.11068C29.6335 7.84746 28.1268 9.26038 26.2748 9.26038H22.916V6.11068C22.9164 4.3739 24.4231 2.96098 26.2748 2.96098Z" fill="#863B3B"/>
<path d="M11.55 28.1328C12.1183 27.6 12.5648 26.9788 12.8769 26.2871C13.2002 25.5702 13.3643 24.8096 13.3643 24.026V20.8763H16.1817V21.8367C16.1817 22.1169 16.4239 22.344 16.7227 22.344C17.0215 22.344 17.2636 22.1169 17.2636 21.8367V20.8763H20.0811V24.026C20.0811 24.8096 20.2452 25.5702 20.5685 26.2871C20.8806 26.9788 21.3267 27.6 21.8953 28.1328C22.4636 28.6657 23.126 29.0844 23.8636 29.3771C24.6281 29.68 25.4392 29.8338 26.2748 29.8338C27.1103 29.8338 27.9214 29.68 28.686 29.3768C29.4236 29.0841 30.0859 28.6657 30.6542 28.1325C31.2224 27.5996 31.6689 26.9785 31.981 26.2868C32.3043 25.5702 32.4684 24.8092 32.4684 24.0257C32.4684 23.2421 32.3043 22.4815 31.981 21.7645C31.6689 21.0728 31.2228 20.4517 30.6542 19.9188C30.0859 19.3859 29.4236 18.9672 28.686 18.6746C27.9214 18.3714 27.1103 18.2175 26.2748 18.2175H21.4989H20.0814H13.3639H11.9465H7.17026C6.33468 18.2175 5.5236 18.3714 4.75906 18.6746C4.02146 18.9672 3.35909 19.3856 2.79084 19.9188C2.22259 20.4517 1.77611 21.0728 1.464 21.7645C1.14103 22.4815 0.976929 23.2421 0.976929 24.0257C0.976929 24.8092 1.14103 25.5698 1.46435 26.2868C1.77646 26.9785 2.22259 27.5996 2.79119 28.1325C3.35944 28.6654 4.02181 29.0841 4.75941 29.3768C5.5236 29.68 6.33503 29.8338 7.17061 29.8338C8.00618 29.8338 8.81727 29.68 9.58181 29.3768C10.3194 29.0844 10.9818 28.6657 11.55 28.1328ZM26.2748 20.8763C28.1268 20.8763 29.6335 22.2892 29.6335 24.026C29.6335 25.7628 28.1268 27.1757 26.2748 27.1757C24.4227 27.1757 22.916 25.7628 22.916 24.026V20.8763H26.2748ZM3.81186 24.0257C3.81186 22.2889 5.31856 20.876 7.17061 20.876H10.5294V24.0257C10.5294 25.7624 9.02266 27.1754 7.17061 27.1754C5.31856 27.1754 3.81186 25.7624 3.81186 24.0257Z" fill="#863B3B"/>
<path d="M16.1815 4.29639C16.1815 4.57661 16.4237 4.80367 16.7225 4.80367C17.0213 4.80367 17.2634 4.57661 17.2634 4.29639V2.514C17.2634 2.23378 17.0213 2.00671 16.7225 2.00671C16.4237 2.00671 16.1815 2.23378 16.1815 2.514V4.29639Z" fill="#863B3B"/>
<path d="M17.2634 25.84C17.2634 25.5598 17.0213 25.3327 16.7225 25.3327C16.4237 25.3327 16.1815 25.5598 16.1815 25.84V27.6224C16.1815 27.9026 16.4237 28.1297 16.7225 28.1297C17.0213 28.1297 17.2634 27.9026 17.2634 27.6224V25.84Z" fill="#863B3B"/>
<path d="M30.651 15.0681C30.651 14.7879 30.4089 14.5609 30.1101 14.5609H28.2094C27.9106 14.5609 27.6685 14.7879 27.6685 15.0681C27.6685 15.3484 27.9106 15.5754 28.2094 15.5754H30.1101C30.4086 15.5754 30.651 15.3484 30.651 15.0681Z" fill="#863B3B"/>
<path d="M24.4813 15.0681C24.4813 14.7879 24.2391 14.5609 23.9403 14.5609H22.0396C21.7408 14.5609 21.4987 14.7879 21.4987 15.0681C21.4987 15.3484 21.7408 15.5754 22.0396 15.5754H23.9403C24.2391 15.5754 24.4813 15.3484 24.4813 15.0681Z" fill="#863B3B"/>
<path d="M11.9465 15.0681C11.9465 14.7879 11.7043 14.5609 11.4055 14.5609H9.50482C9.206 14.5609 8.96387 14.7879 8.96387 15.0681C8.96387 15.3484 9.206 15.5754 9.50482 15.5754H11.4055C11.7043 15.5754 11.9465 15.3484 11.9465 15.0681Z" fill="#863B3B"/>
<path d="M18.3116 15.0681C18.3116 14.7879 18.0694 14.5609 17.7706 14.5609H15.8699C15.5711 14.5609 15.329 14.7879 15.329 15.0681C15.329 15.3484 15.5711 15.5754 15.8699 15.5754H17.7706C18.0694 15.5754 18.3116 15.3484 18.3116 15.0681Z" fill="#863B3B"/>
<path d="M5.77691 15.0681C5.77691 14.7879 5.53478 14.5609 5.23596 14.5609H3.33527C3.03645 14.5609 2.79431 14.7879 2.79431 15.0681C2.79431 15.3484 3.03645 15.5754 3.33527 15.5754H5.23596C5.53478 15.5754 5.77691 15.3484 5.77691 15.0681Z" fill="#863B3B"/>
</svg>
