<svg width="39" height="32" viewBox="0 0 39 32" fill="none" xmlns="http://www.w3.org/2000/svg">
<path d="M37.0754 17.957H35.1093L23.5164 3.29272V1.4059C23.5164 1.11325 23.3736 0.832599 23.1193 0.62567C22.865 0.418741 22.5202 0.30249 22.1606 0.30249H16.737C16.3774 0.30249 16.0325 0.418741 15.7782 0.62567C15.524 0.832599 15.3811 1.11325 15.3811 1.4059V3.29272L3.78824 17.957H1.8222C1.46259 17.957 1.11772 18.0732 0.86344 18.2801C0.609161 18.4871 0.466309 18.7677 0.466309 19.0604C0.466309 19.353 0.609161 19.6337 0.86344 19.8406C1.11772 20.0475 1.46259 20.1638 1.8222 20.1638H15.3811V21.2672H4.53398C4.17438 21.2672 3.8295 21.3834 3.57522 21.5904C3.32094 21.7973 3.17809 22.0779 3.17809 22.3706C3.17809 22.6632 3.32094 22.9439 3.57522 23.1508C3.8295 23.3577 4.17438 23.474 4.53398 23.474H15.3811V25.6808H12.6693C12.3097 25.6808 11.9648 25.7971 11.7106 26.004C11.4563 26.2109 11.3134 26.4916 11.3134 26.7842V30.0944C11.3134 30.3871 11.4563 30.6677 11.7106 30.8746C11.9648 31.0816 12.3097 31.1978 12.6693 31.1978H26.2282C26.5878 31.1978 26.9327 31.0816 27.187 30.8746C27.4413 30.6677 27.5841 30.3871 27.5841 30.0944V26.7842C27.5841 26.4916 27.4413 26.2109 27.187 26.004C26.9327 25.7971 26.5878 25.6808 26.2282 25.6808H23.5164V23.474H34.3636C34.7232 23.474 35.0681 23.3577 35.3223 23.1508C35.5766 22.9439 35.7195 22.6632 35.7195 22.3706C35.7195 22.0779 35.5766 21.7973 35.3223 21.5904C35.0681 21.3834 34.7232 21.2672 34.3636 21.2672H23.5164V20.1638H37.0754C37.435 20.1638 37.7798 20.0475 38.0341 19.8406C38.2884 19.6337 38.4312 19.353 38.4312 19.0604C38.4312 18.7677 38.2884 18.4871 38.0341 18.2801C37.7798 18.0732 37.435 17.957 37.0754 17.957ZM31.8823 17.957H29.6857L23.5164 9.91315V7.36428L31.8823 17.957ZM15.3811 7.36428V9.91315L9.2118 17.957H7.01526L15.3811 7.36428ZM12.3981 17.957L15.3811 14.084V17.957H12.3981ZM23.5164 14.084L26.4994 17.957H23.5164V14.084Z" fill="#863B3B"/>
</svg>
